<svg xmlns="http://www.w3.org/2000/svg" xmlns:xlink="http://www.w3.org/1999/xlink" width="500" zoomAndPan="magnify" viewBox="0 0 375 374.999991" height="500" preserveAspectRatio="xMidYMid meet" version="1.0"><defs><g/><clipPath id="8fbd7d76f6"><path d="M 5.464844 6.203125 L 368.058594 6.203125 L 368.058594 368.796875 L 5.464844 368.796875 Z M 5.464844 6.203125 " clip-rule="nonzero"/></clipPath><clipPath id="62ef1a4f6d"><path d="M 186.761719 6.203125 C 86.636719 6.203125 5.464844 87.375 5.464844 187.5 C 5.464844 287.625 86.636719 368.796875 186.761719 368.796875 C 286.886719 368.796875 368.058594 287.625 368.058594 187.5 C 368.058594 87.375 286.886719 6.203125 186.761719 6.203125 Z M 186.761719 6.203125 " clip-rule="nonzero"/></clipPath><clipPath id="e6741452d8"><path d="M 0.464844 0.203125 L 363.058594 0.203125 L 363.058594 362.796875 L 0.464844 362.796875 Z M 0.464844 0.203125 " clip-rule="nonzero"/></clipPath><clipPath id="a614aa3d95"><path d="M 181.761719 0.203125 C 81.636719 0.203125 0.464844 81.375 0.464844 181.5 C 0.464844 281.625 81.636719 362.796875 181.761719 362.796875 C 281.886719 362.796875 363.058594 281.625 363.058594 181.5 C 363.058594 81.375 281.886719 0.203125 181.761719 0.203125 Z M 181.761719 0.203125 " clip-rule="nonzero"/></clipPath><clipPath id="bd056df641"><rect x="0" width="364" y="0" height="363"/></clipPath><clipPath id="ca9070c093"><path d="M 5.464844 6.203125 L 367.714844 6.203125 L 367.714844 368.453125 L 5.464844 368.453125 Z M 5.464844 6.203125 " clip-rule="nonzero"/></clipPath><clipPath id="cfe3dd9311"><path d="M 19.847656 20.585938 L 353.675781 20.585938 L 353.675781 354.414062 L 19.847656 354.414062 Z M 19.847656 20.585938 " clip-rule="nonzero"/></clipPath><clipPath id="6bf9cf80f5"><path d="M 186.761719 20.585938 C 94.578125 20.585938 19.847656 95.316406 19.847656 187.5 C 19.847656 279.683594 94.578125 354.414062 186.761719 354.414062 C 278.945312 354.414062 353.675781 279.683594 353.675781 187.5 C 353.675781 95.316406 278.945312 20.585938 186.761719 20.585938 Z M 186.761719 20.585938 " clip-rule="nonzero"/></clipPath><clipPath id="3d7281043d"><path d="M 0.847656 0.585938 L 334.675781 0.585938 L 334.675781 334.414062 L 0.847656 334.414062 Z M 0.847656 0.585938 " clip-rule="nonzero"/></clipPath><clipPath id="a2dfaaeabc"><path d="M 167.761719 0.585938 C 75.578125 0.585938 0.847656 75.316406 0.847656 167.5 C 0.847656 259.683594 75.578125 334.414062 167.761719 334.414062 C 259.945312 334.414062 334.675781 259.683594 334.675781 167.5 C 334.675781 75.316406 259.945312 0.585938 167.761719 0.585938 Z M 167.761719 0.585938 " clip-rule="nonzero"/></clipPath><clipPath id="a5358ea7ff"><rect x="0" width="335" y="0" height="335"/></clipPath><clipPath id="ee771cb5d9"><rect x="0" width="148" y="0" height="252"/></clipPath><clipPath id="395dc928dc"><rect x="0" width="216" y="0" height="18"/></clipPath><clipPath id="4d79f7c436"><rect x="0" width="142" y="0" height="252"/></clipPath></defs><g clip-path="url(#8fbd7d76f6)"><g clip-path="url(#62ef1a4f6d)"><g transform="matrix(1, 0, 0, 1, 5, 6)"><g clip-path="url(#bd056df641)"><g clip-path="url(#e6741452d8)"><g clip-path="url(#a614aa3d95)"><path fill="#ffffff" d="M 0.464844 0.203125 L 363.058594 0.203125 L 363.058594 362.796875 L 0.464844 362.796875 Z M 0.464844 0.203125 " fill-opacity="1" fill-rule="nonzero"/></g></g></g></g></g></g><g clip-path="url(#ca9070c093)"><path fill="#1f3018" d="M 186.761719 6.203125 C 86.734375 6.203125 5.464844 87.472656 5.464844 187.5 C 5.464844 287.527344 86.734375 368.792969 186.761719 368.792969 C 286.789062 368.792969 368.054688 287.527344 368.054688 187.5 C 368.054688 87.472656 286.789062 6.203125 186.761719 6.203125 Z M 186.761719 14.085938 C 282.636719 14.085938 360.175781 91.625 360.175781 187.5 C 360.175781 283.375 282.636719 360.914062 186.761719 360.914062 C 90.886719 360.914062 13.347656 283.375 13.347656 187.5 C 13.347656 91.625 90.886719 14.085938 186.761719 14.085938 Z M 186.761719 14.085938 " fill-opacity="1" fill-rule="nonzero"/></g><g clip-path="url(#cfe3dd9311)"><g clip-path="url(#6bf9cf80f5)"><g transform="matrix(1, 0, 0, 1, 19, 20)"><g clip-path="url(#a5358ea7ff)"><g clip-path="url(#3d7281043d)"><g clip-path="url(#a2dfaaeabc)"><path fill="#4e97cd" d="M 0.847656 0.585938 L 334.675781 0.585938 L 334.675781 334.414062 L 0.847656 334.414062 Z M 0.847656 0.585938 " fill-opacity="1" fill-rule="nonzero"/></g></g></g></g></g></g><g transform="matrix(1, 0, 0, 1, 64, 20)"><g clip-path="url(#ee771cb5d9)"><g fill="#000000" fill-opacity="0.4"><g transform="translate(5.212029, 186.336202)"><g><path d="M 104.71875 -28.796875 C 103.050781 -31.847656 100.554688 -34.601562 97.234375 -37.0625 C 93.921875 -39.519531 90.1875 -41.492188 86.03125 -42.984375 C 81.882812 -44.484375 77.550781 -45.597656 73.03125 -46.328125 C 59.613281 -48.316406 47.09375 -52.664062 35.46875 -59.375 C 34.46875 -59.90625 33.40625 -61.035156 32.28125 -62.765625 C 31.15625 -64.492188 30.59375 -66.15625 30.59375 -67.75 C 30.59375 -73.59375 31.570312 -79.453125 33.53125 -85.328125 C 35.488281 -91.210938 37.992188 -95.816406 41.046875 -99.140625 C 45.960938 -104.648438 54.8125 -109.460938 67.59375 -113.578125 C 80.382812 -117.703125 94.785156 -119.765625 110.796875 -119.765625 C 120.359375 -119.765625 127.742188 -119.03125 132.953125 -117.5625 C 138.171875 -116.101562 140.78125 -113.847656 140.78125 -110.796875 C 140.78125 -105.804688 140.097656 -101.953125 138.734375 -99.234375 C 137.378906 -96.515625 135.921875 -94.703125 134.359375 -93.796875 C 132.796875 -92.898438 130.054688 -91.691406 126.140625 -90.171875 C 121.953125 -88.703125 118.3125 -87.171875 115.21875 -85.578125 C 112.132812 -83.984375 109.492188 -82.457031 107.296875 -81 C 105.109375 -79.539062 103.75 -78.8125 103.21875 -78.8125 C 102.550781 -78.8125 102.21875 -79.078125 102.21875 -79.609375 C 102.21875 -80.734375 103.394531 -82.441406 105.75 -84.734375 C 108.113281 -87.023438 111.023438 -89.035156 114.484375 -90.765625 C 118.128906 -92.691406 119.953125 -93.921875 119.953125 -94.453125 C 119.953125 -95.316406 117.925781 -95.75 113.875 -95.75 C 101.59375 -95.75 90.234375 -94.648438 79.796875 -92.453125 C 69.367188 -90.265625 61.148438 -87.375 55.140625 -83.78125 C 49.128906 -80.195312 46.125 -76.546875 46.125 -72.828125 C 46.125 -70.503906 47.367188 -68.859375 49.859375 -67.890625 C 52.359375 -66.929688 57.859375 -65.320312 66.359375 -63.0625 C 74.859375 -60.8125 82.460938 -58.222656 89.171875 -55.296875 C 98.804688 -51.179688 105.945312 -46.894531 110.59375 -42.4375 C 115.238281 -37.988281 117.5625 -33.007812 117.5625 -27.5 C 117.5625 -23.707031 116.648438 -19.898438 114.828125 -16.078125 C 113.003906 -12.265625 110.332031 -8.765625 106.8125 -5.578125 C 103.289062 -2.390625 99.238281 0.234375 94.65625 2.296875 C 90.726562 3.953125 85.789062 5.507812 79.84375 6.96875 C 73.90625 8.4375 67.460938 9.582031 60.515625 10.40625 C 53.578125 11.238281 46.957031 11.65625 40.65625 11.65625 C 29.03125 11.65625 19.679688 10.554688 12.609375 8.359375 C 5.535156 6.171875 2 2.851562 2 -1.59375 C 2 -3.582031 3.191406 -6.6875 5.578125 -10.90625 C 7.972656 -15.125 10.796875 -17.960938 14.046875 -19.421875 C 16.898438 -20.554688 19.65625 -21.207031 22.3125 -21.375 C 24.96875 -21.539062 26.296875 -21.222656 26.296875 -20.421875 C 26.296875 -20.222656 26.195312 -20.023438 26 -19.828125 C 25.800781 -19.628906 25.566406 -19.460938 25.296875 -19.328125 C 25.035156 -19.191406 24.773438 -19.0625 24.515625 -18.9375 C 23.179688 -18.40625 22.097656 -17.988281 21.265625 -17.6875 C 20.441406 -17.382812 19.78125 -17.082031 19.28125 -16.78125 C 18.78125 -16.488281 18.53125 -16.078125 18.53125 -15.546875 C 18.53125 -14.148438 25.40625 -13.453125 39.15625 -13.453125 C 51.113281 -13.453125 60.910156 -13.882812 68.546875 -14.75 C 76.179688 -15.613281 82.921875 -17.171875 88.765625 -19.421875 C 94.617188 -21.679688 99.9375 -24.804688 104.71875 -28.796875 Z M 104.71875 -28.796875 "/></g></g></g><g fill="#000000" fill-opacity="1"><g transform="translate(1.424454, 182.548628)"><g><path d="M 104.71875 -28.796875 C 103.050781 -31.847656 100.554688 -34.601562 97.234375 -37.0625 C 93.921875 -39.519531 90.1875 -41.492188 86.03125 -42.984375 C 81.882812 -44.484375 77.550781 -45.597656 73.03125 -46.328125 C 59.613281 -48.316406 47.09375 -52.664062 35.46875 -59.375 C 34.46875 -59.90625 33.40625 -61.035156 32.28125 -62.765625 C 31.15625 -64.492188 30.59375 -66.15625 30.59375 -67.75 C 30.59375 -73.59375 31.570312 -79.453125 33.53125 -85.328125 C 35.488281 -91.210938 37.992188 -95.816406 41.046875 -99.140625 C 45.960938 -104.648438 54.8125 -109.460938 67.59375 -113.578125 C 80.382812 -117.703125 94.785156 -119.765625 110.796875 -119.765625 C 120.359375 -119.765625 127.742188 -119.03125 132.953125 -117.5625 C 138.171875 -116.101562 140.78125 -113.847656 140.78125 -110.796875 C 140.78125 -105.804688 140.097656 -101.953125 138.734375 -99.234375 C 137.378906 -96.515625 135.921875 -94.703125 134.359375 -93.796875 C 132.796875 -92.898438 130.054688 -91.691406 126.140625 -90.171875 C 121.953125 -88.703125 118.3125 -87.171875 115.21875 -85.578125 C 112.132812 -83.984375 109.492188 -82.457031 107.296875 -81 C 105.109375 -79.539062 103.75 -78.8125 103.21875 -78.8125 C 102.550781 -78.8125 102.21875 -79.078125 102.21875 -79.609375 C 102.21875 -80.734375 103.394531 -82.441406 105.75 -84.734375 C 108.113281 -87.023438 111.023438 -89.035156 114.484375 -90.765625 C 118.128906 -92.691406 119.953125 -93.921875 119.953125 -94.453125 C 119.953125 -95.316406 117.925781 -95.75 113.875 -95.75 C 101.59375 -95.75 90.234375 -94.648438 79.796875 -92.453125 C 69.367188 -90.265625 61.148438 -87.375 55.140625 -83.78125 C 49.128906 -80.195312 46.125 -76.546875 46.125 -72.828125 C 46.125 -70.503906 47.367188 -68.859375 49.859375 -67.890625 C 52.359375 -66.929688 57.859375 -65.320312 66.359375 -63.0625 C 74.859375 -60.8125 82.460938 -58.222656 89.171875 -55.296875 C 98.804688 -51.179688 105.945312 -46.894531 110.59375 -42.4375 C 115.238281 -37.988281 117.5625 -33.007812 117.5625 -27.5 C 117.5625 -23.707031 116.648438 -19.898438 114.828125 -16.078125 C 113.003906 -12.265625 110.332031 -8.765625 106.8125 -5.578125 C 103.289062 -2.390625 99.238281 0.234375 94.65625 2.296875 C 90.726562 3.953125 85.789062 5.507812 79.84375 6.96875 C 73.90625 8.4375 67.460938 9.582031 60.515625 10.40625 C 53.578125 11.238281 46.957031 11.65625 40.65625 11.65625 C 29.03125 11.65625 19.679688 10.554688 12.609375 8.359375 C 5.535156 6.171875 2 2.851562 2 -1.59375 C 2 -3.582031 3.191406 -6.6875 5.578125 -10.90625 C 7.972656 -15.125 10.796875 -17.960938 14.046875 -19.421875 C 16.898438 -20.554688 19.65625 -21.207031 22.3125 -21.375 C 24.96875 -21.539062 26.296875 -21.222656 26.296875 -20.421875 C 26.296875 -20.222656 26.195312 -20.023438 26 -19.828125 C 25.800781 -19.628906 25.566406 -19.460938 25.296875 -19.328125 C 25.035156 -19.191406 24.773438 -19.0625 24.515625 -18.9375 C 23.179688 -18.40625 22.097656 -17.988281 21.265625 -17.6875 C 20.441406 -17.382812 19.78125 -17.082031 19.28125 -16.78125 C 18.78125 -16.488281 18.53125 -16.078125 18.53125 -15.546875 C 18.53125 -14.148438 25.40625 -13.453125 39.15625 -13.453125 C 51.113281 -13.453125 60.910156 -13.882812 68.546875 -14.75 C 76.179688 -15.613281 82.921875 -17.171875 88.765625 -19.421875 C 94.617188 -21.679688 99.9375 -24.804688 104.71875 -28.796875 Z M 104.71875 -28.796875 "/></g></g></g></g></g><g transform="matrix(1, 0, 0, 1, 83, 276)"><g clip-path="url(#395dc928dc)"><g fill="#f9ffed" fill-opacity="1"><g transform="translate(0.641576, 13.59115)"><g><path d="M 10.03125 -9.796875 L 10.03125 0 L 8.203125 0 L 8.203125 -4.203125 L 3.140625 -4.203125 L 3.140625 0 L 1.3125 0 L 1.3125 -9.796875 L 3.140625 -9.796875 L 3.140625 -5.75 L 8.203125 -5.75 L 8.203125 -9.796875 Z M 10.03125 -9.796875 "/></g></g></g><g fill="#f9ffed" fill-opacity="1"><g transform="translate(20.078355, 13.59115)"><g><path d="M 8.671875 -1.53125 L 8.671875 0 L 1.3125 0 L 1.3125 -9.796875 L 8.46875 -9.796875 L 8.46875 -8.28125 L 3.140625 -8.28125 L 3.140625 -5.71875 L 7.875 -5.71875 L 7.875 -4.234375 L 3.140625 -4.234375 L 3.140625 -1.53125 Z M 8.671875 -1.53125 "/></g></g></g><g fill="#f9ffed" fill-opacity="1"><g transform="translate(37.555112, 13.59115)"><g><path d="M 7.671875 -2.265625 L 2.765625 -2.265625 L 1.8125 0 L -0.0625 0 L 4.34375 -9.796875 L 6.125 -9.796875 L 10.5625 0 L 8.65625 0 Z M 7.0625 -3.703125 L 5.21875 -7.984375 L 3.390625 -3.703125 Z M 7.0625 -3.703125 "/></g></g></g><g fill="#f9ffed" fill-opacity="1"><g transform="translate(56.137881, 13.59115)"><g><path d="M 3.296875 -8.265625 L 0.0625 -8.265625 L 0.0625 -9.796875 L 8.375 -9.796875 L 8.375 -8.265625 L 5.125 -8.265625 L 5.125 0 L 3.296875 0 Z M 3.296875 -8.265625 "/></g></g></g><g fill="#f9ffed" fill-opacity="1"><g transform="translate(72.662629, 13.59115)"><g><path d="M 1.3125 -9.796875 L 3.140625 -9.796875 L 3.140625 0 L 1.3125 0 Z M 1.3125 -9.796875 "/></g></g></g><g fill="#f9ffed" fill-opacity="1"><g transform="translate(85.225339, 13.59115)"><g><path d="M 10.03125 -9.796875 L 10.03125 0 L 8.53125 0 L 3.125 -6.640625 L 3.125 0 L 1.3125 0 L 1.3125 -9.796875 L 2.8125 -9.796875 L 8.21875 -3.15625 L 8.21875 -9.796875 Z M 10.03125 -9.796875 "/></g></g></g><g fill="#f9ffed" fill-opacity="1"><g transform="translate(104.662118, 13.59115)"><g><path d="M 8.015625 -5.015625 L 9.734375 -5.015625 L 9.734375 -1.109375 C 9.222656 -0.703125 8.628906 -0.390625 7.953125 -0.171875 C 7.285156 0.0351562 6.597656 0.140625 5.890625 0.140625 C 4.890625 0.140625 3.988281 -0.0703125 3.1875 -0.5 C 2.382812 -0.9375 1.753906 -1.535156 1.296875 -2.296875 C 0.835938 -3.066406 0.609375 -3.9375 0.609375 -4.90625 C 0.609375 -5.863281 0.835938 -6.722656 1.296875 -7.484375 C 1.753906 -8.253906 2.382812 -8.851562 3.1875 -9.28125 C 4 -9.71875 4.910156 -9.9375 5.921875 -9.9375 C 6.742188 -9.9375 7.488281 -9.800781 8.15625 -9.53125 C 8.832031 -9.257812 9.398438 -8.863281 9.859375 -8.34375 L 8.703125 -7.21875 C 7.960938 -7.96875 7.0625 -8.34375 6 -8.34375 C 5.3125 -8.34375 4.695312 -8.195312 4.15625 -7.90625 C 3.625 -7.613281 3.207031 -7.207031 2.90625 -6.6875 C 2.601562 -6.164062 2.453125 -5.570312 2.453125 -4.90625 C 2.453125 -4.25 2.601562 -3.660156 2.90625 -3.140625 C 3.207031 -2.617188 3.625 -2.207031 4.15625 -1.90625 C 4.695312 -1.601562 5.304688 -1.453125 5.984375 -1.453125 C 6.753906 -1.453125 7.429688 -1.617188 8.015625 -1.953125 Z M 8.015625 -5.015625 "/></g></g></g><g fill="#f9ffed" fill-opacity="1"><g transform="translate(123.56689, 13.59115)"><g/></g></g><g fill="#f9ffed" fill-opacity="1"><g transform="translate(135.527603, 13.59115)"><g><path d="M 8.671875 0.15625 L 7.4375 -1.03125 C 6.519531 -0.25 5.421875 0.140625 4.140625 0.140625 C 3.460938 0.140625 2.851562 0.03125 2.3125 -0.1875 C 1.769531 -0.414062 1.34375 -0.726562 1.03125 -1.125 C 0.726562 -1.519531 0.578125 -1.972656 0.578125 -2.484375 C 0.578125 -3.085938 0.753906 -3.617188 1.109375 -4.078125 C 1.460938 -4.546875 2.039062 -5.003906 2.84375 -5.453125 C 2.445312 -5.835938 2.164062 -6.203125 2 -6.546875 C 1.832031 -6.890625 1.75 -7.242188 1.75 -7.609375 C 1.75 -8.296875 2.003906 -8.847656 2.515625 -9.265625 C 3.035156 -9.691406 3.726562 -9.90625 4.59375 -9.90625 C 5.382812 -9.90625 6.015625 -9.710938 6.484375 -9.328125 C 6.960938 -8.941406 7.203125 -8.414062 7.203125 -7.75 C 7.203125 -7.25 7.046875 -6.800781 6.734375 -6.40625 C 6.421875 -6.019531 5.910156 -5.625 5.203125 -5.21875 L 7.328125 -3.203125 C 7.554688 -3.660156 7.738281 -4.210938 7.875 -4.859375 L 9.28125 -4.390625 C 9.09375 -3.523438 8.800781 -2.78125 8.40625 -2.15625 L 9.625 -0.984375 Z M 4.59375 -8.671875 C 4.207031 -8.671875 3.898438 -8.570312 3.671875 -8.375 C 3.453125 -8.1875 3.34375 -7.9375 3.34375 -7.625 C 3.34375 -7.40625 3.398438 -7.191406 3.515625 -6.984375 C 3.640625 -6.785156 3.878906 -6.515625 4.234375 -6.171875 C 4.785156 -6.484375 5.171875 -6.753906 5.390625 -6.984375 C 5.609375 -7.210938 5.71875 -7.460938 5.71875 -7.734375 C 5.71875 -8.015625 5.617188 -8.238281 5.421875 -8.40625 C 5.222656 -8.582031 4.945312 -8.671875 4.59375 -8.671875 Z M 4.265625 -1.28125 C 5.078125 -1.28125 5.785156 -1.53125 6.390625 -2.03125 L 3.8125 -4.515625 C 3.25 -4.203125 2.851562 -3.898438 2.625 -3.609375 C 2.394531 -3.328125 2.28125 -3.007812 2.28125 -2.65625 C 2.28125 -2.25 2.460938 -1.914062 2.828125 -1.65625 C 3.191406 -1.40625 3.671875 -1.28125 4.265625 -1.28125 Z M 4.265625 -1.28125 "/></g></g></g><g fill="#f9ffed" fill-opacity="1"><g transform="translate(153.50836, 13.59115)"><g/></g></g><g fill="#f9ffed" fill-opacity="1"><g transform="translate(165.469073, 13.59115)"><g><path d="M 7.671875 -2.265625 L 2.765625 -2.265625 L 1.8125 0 L -0.0625 0 L 4.34375 -9.796875 L 6.125 -9.796875 L 10.5625 0 L 8.65625 0 Z M 7.0625 -3.703125 L 5.21875 -7.984375 L 3.390625 -3.703125 Z M 7.0625 -3.703125 "/></g></g></g><g fill="#f9ffed" fill-opacity="1"><g transform="translate(184.051841, 13.59115)"><g><path d="M 1.3125 -9.796875 L 3.140625 -9.796875 L 3.140625 0 L 1.3125 0 Z M 1.3125 -9.796875 "/></g></g></g><g fill="#f9ffed" fill-opacity="1"><g transform="translate(196.614551, 13.59115)"><g><path d="M 7.734375 0 L 5.71875 -2.875 C 5.632812 -2.863281 5.507812 -2.859375 5.34375 -2.859375 L 3.140625 -2.859375 L 3.140625 0 L 1.3125 0 L 1.3125 -9.796875 L 5.34375 -9.796875 C 6.195312 -9.796875 6.9375 -9.65625 7.5625 -9.375 C 8.195312 -9.09375 8.679688 -8.691406 9.015625 -8.171875 C 9.347656 -7.648438 9.515625 -7.03125 9.515625 -6.3125 C 9.515625 -5.570312 9.332031 -4.9375 8.96875 -4.40625 C 8.613281 -3.875 8.101562 -3.476562 7.4375 -3.21875 L 9.6875 0 Z M 7.6875 -6.3125 C 7.6875 -6.9375 7.476562 -7.414062 7.0625 -7.75 C 6.65625 -8.09375 6.054688 -8.265625 5.265625 -8.265625 L 3.140625 -8.265625 L 3.140625 -4.359375 L 5.265625 -4.359375 C 6.054688 -4.359375 6.65625 -4.523438 7.0625 -4.859375 C 7.476562 -5.203125 7.6875 -5.6875 7.6875 -6.3125 Z M 7.6875 -6.3125 "/></g></g></g></g></g><g transform="matrix(1, 0, 0, 1, 186, 69)"><g clip-path="url(#4d79f7c436)"><g fill="#000000" fill-opacity="0.4"><g transform="translate(5.098419, 186.50222)"><g><path d="M 41.640625 -59.1875 L 72.03125 -104.515625 C 65.125 -104.242188 57.847656 -103.242188 50.203125 -101.515625 C 42.566406 -99.796875 36.023438 -97.957031 30.578125 -96 C 25.140625 -94.039062 20.273438 -92.179688 15.984375 -90.421875 C 11.703125 -88.660156 8.632812 -87.414062 6.78125 -86.6875 C 6.3125 -86.6875 5.84375 -86.847656 5.375 -87.171875 C 4.914062 -87.503906 4.6875 -87.90625 4.6875 -88.375 C 4.6875 -88.90625 6.226562 -92.160156 9.3125 -98.140625 C 12.40625 -104.117188 16.039062 -110.523438 20.21875 -117.359375 C 43.46875 -125.671875 63.992188 -129.828125 81.796875 -129.828125 C 102.390625 -129.828125 116.671875 -125.441406 124.640625 -116.671875 C 127.492188 -113.617188 129.703125 -109.847656 131.265625 -105.359375 C 132.828125 -100.878906 133.609375 -96.445312 133.609375 -92.0625 C 133.609375 -82.09375 131.53125 -73.039062 127.375 -64.90625 C 123.226562 -56.769531 117.300781 -49.710938 109.59375 -43.734375 C 101.882812 -37.753906 92.816406 -33.1875 82.390625 -30.03125 C 71.960938 -26.882812 60.539062 -25.3125 48.125 -25.3125 C 45.925781 -25.3125 41.441406 -25.707031 34.671875 -26.5 L 25.703125 -10.15625 C 26.628906 -8.757812 27.09375 -7.632812 27.09375 -6.78125 C 27.09375 -4.71875 26.628906 -2.988281 25.703125 -1.59375 C 24.378906 0.394531 22.617188 3.015625 20.421875 6.265625 C 18.234375 9.523438 16.753906 11.6875 15.984375 12.75 C 15.222656 13.8125 14.359375 14.738281 13.390625 15.53125 C 12.429688 16.332031 11.488281 16.734375 10.5625 16.734375 C 8.632812 16.734375 7.40625 16.148438 6.875 14.984375 C 6.34375 13.828125 6.078125 12.21875 6.078125 10.15625 C 6.078125 7.238281 7.519531 2.609375 10.40625 -3.734375 C 13.300781 -10.078125 17.671875 -18.5 23.515625 -29 C 20.390625 -30.1875 17.960938 -31.742188 16.234375 -33.671875 C 14.515625 -35.597656 13.65625 -37.492188 13.65625 -39.359375 C 13.65625 -43.472656 16.007812 -47.289062 20.71875 -50.8125 C 25.4375 -54.332031 32.410156 -57.125 41.640625 -59.1875 Z M 52.015625 -56.484375 L 46.328125 -46.921875 C 48.847656 -46.796875 51.085938 -46.664062 53.046875 -46.53125 C 55.015625 -46.394531 56.660156 -46.328125 57.984375 -46.328125 C 69.609375 -46.328125 79.6875 -47.882812 88.21875 -51 C 96.757812 -54.125 103.535156 -57.992188 108.546875 -62.609375 C 113.566406 -67.234375 117.203125 -71.867188 119.453125 -76.515625 C 121.710938 -81.160156 122.84375 -85.046875 122.84375 -88.171875 C 122.84375 -92.492188 121.113281 -95.882812 117.65625 -98.34375 C 114.207031 -100.800781 109.242188 -102.476562 102.765625 -103.375 C 96.296875 -104.269531 87.945312 -104.71875 77.71875 -104.71875 C 77.84375 -103.988281 77.90625 -103.09375 77.90625 -102.03125 C 77.90625 -98.570312 76.082031 -94.019531 72.4375 -88.375 L 55.09375 -61.171875 L 68.15625 -62.671875 C 69.21875 -62.671875 69.75 -62.171875 69.75 -61.171875 C 69.75 -60.304688 68.882812 -59.707031 67.15625 -59.375 Z M 52.015625 -56.484375 "/></g></g></g><g fill="#000000" fill-opacity="1"><g transform="translate(1.310847, 182.714647)"><g><path d="M 41.640625 -59.1875 L 72.03125 -104.515625 C 65.125 -104.242188 57.847656 -103.242188 50.203125 -101.515625 C 42.566406 -99.796875 36.023438 -97.957031 30.578125 -96 C 25.140625 -94.039062 20.273438 -92.179688 15.984375 -90.421875 C 11.703125 -88.660156 8.632812 -87.414062 6.78125 -86.6875 C 6.3125 -86.6875 5.84375 -86.847656 5.375 -87.171875 C 4.914062 -87.503906 4.6875 -87.90625 4.6875 -88.375 C 4.6875 -88.90625 6.226562 -92.160156 9.3125 -98.140625 C 12.40625 -104.117188 16.039062 -110.523438 20.21875 -117.359375 C 43.46875 -125.671875 63.992188 -129.828125 81.796875 -129.828125 C 102.390625 -129.828125 116.671875 -125.441406 124.640625 -116.671875 C 127.492188 -113.617188 129.703125 -109.847656 131.265625 -105.359375 C 132.828125 -100.878906 133.609375 -96.445312 133.609375 -92.0625 C 133.609375 -82.09375 131.53125 -73.039062 127.375 -64.90625 C 123.226562 -56.769531 117.300781 -49.710938 109.59375 -43.734375 C 101.882812 -37.753906 92.816406 -33.1875 82.390625 -30.03125 C 71.960938 -26.882812 60.539062 -25.3125 48.125 -25.3125 C 45.925781 -25.3125 41.441406 -25.707031 34.671875 -26.5 L 25.703125 -10.15625 C 26.628906 -8.757812 27.09375 -7.632812 27.09375 -6.78125 C 27.09375 -4.71875 26.628906 -2.988281 25.703125 -1.59375 C 24.378906 0.394531 22.617188 3.015625 20.421875 6.265625 C 18.234375 9.523438 16.753906 11.6875 15.984375 12.75 C 15.222656 13.8125 14.359375 14.738281 13.390625 15.53125 C 12.429688 16.332031 11.488281 16.734375 10.5625 16.734375 C 8.632812 16.734375 7.40625 16.148438 6.875 14.984375 C 6.34375 13.828125 6.078125 12.21875 6.078125 10.15625 C 6.078125 7.238281 7.519531 2.609375 10.40625 -3.734375 C 13.300781 -10.078125 17.671875 -18.5 23.515625 -29 C 20.390625 -30.1875 17.960938 -31.742188 16.234375 -33.671875 C 14.515625 -35.597656 13.65625 -37.492188 13.65625 -39.359375 C 13.65625 -43.472656 16.007812 -47.289062 20.71875 -50.8125 C 25.4375 -54.332031 32.410156 -57.125 41.640625 -59.1875 Z M 52.015625 -56.484375 L 46.328125 -46.921875 C 48.847656 -46.796875 51.085938 -46.664062 53.046875 -46.53125 C 55.015625 -46.394531 56.660156 -46.328125 57.984375 -46.328125 C 69.609375 -46.328125 79.6875 -47.882812 88.21875 -51 C 96.757812 -54.125 103.535156 -57.992188 108.546875 -62.609375 C 113.566406 -67.234375 117.203125 -71.867188 119.453125 -76.515625 C 121.710938 -81.160156 122.84375 -85.046875 122.84375 -88.171875 C 122.84375 -92.492188 121.113281 -95.882812 117.65625 -98.34375 C 114.207031 -100.800781 109.242188 -102.476562 102.765625 -103.375 C 96.296875 -104.269531 87.945312 -104.71875 77.71875 -104.71875 C 77.84375 -103.988281 77.90625 -103.09375 77.90625 -102.03125 C 77.90625 -98.570312 76.082031 -94.019531 72.4375 -88.375 L 55.09375 -61.171875 L 68.15625 -62.671875 C 69.21875 -62.671875 69.75 -62.171875 69.75 -61.171875 C 69.75 -60.304688 68.882812 -59.707031 67.15625 -59.375 Z M 52.015625 -56.484375 "/></g></g></g></g></g></svg>