<svg xmlns="http://www.w3.org/2000/svg" xmlns:xlink="http://www.w3.org/1999/xlink" width="567" zoomAndPan="magnify" viewBox="0 0 425.25 141.750002" height="189" preserveAspectRatio="xMidYMid meet" version="1.0"><defs><g/><clipPath id="580dd4cdf7"><path d="M 0.535156 5.058594 L 106.238281 5.058594 L 106.238281 110.761719 L 0.535156 110.761719 Z M 0.535156 5.058594 " clip-rule="nonzero"/></clipPath><clipPath id="66284d5382"><path d="M 53.386719 5.058594 C 24.199219 5.058594 0.535156 28.722656 0.535156 57.910156 C 0.535156 87.101562 24.199219 110.761719 53.386719 110.761719 C 82.578125 110.761719 106.238281 87.101562 106.238281 57.910156 C 106.238281 28.722656 82.578125 5.058594 53.386719 5.058594 Z M 53.386719 5.058594 " clip-rule="nonzero"/></clipPath><clipPath id="6e9c785018"><path d="M 0.535156 0.0585938 L 106.238281 0.0585938 L 106.238281 105.761719 L 0.535156 105.761719 Z M 0.535156 0.0585938 " clip-rule="nonzero"/></clipPath><clipPath id="f42529e03b"><path d="M 53.386719 0.0585938 C 24.199219 0.0585938 0.535156 23.722656 0.535156 52.910156 C 0.535156 82.101562 24.199219 105.761719 53.386719 105.761719 C 82.578125 105.761719 106.238281 82.101562 106.238281 52.910156 C 106.238281 23.722656 82.578125 0.0585938 53.386719 0.0585938 Z M 53.386719 0.0585938 " clip-rule="nonzero"/></clipPath><clipPath id="4a9aea1b22"><rect x="0" width="107" y="0" height="106"/></clipPath><clipPath id="a7342c4373"><path d="M 0.535156 5.058594 L 106.113281 5.058594 L 106.113281 110.636719 L 0.535156 110.636719 Z M 0.535156 5.058594 " clip-rule="nonzero"/></clipPath><clipPath id="01a5d496f7"><path d="M 4.730469 9.253906 L 102.046875 9.253906 L 102.046875 106.570312 L 4.730469 106.570312 Z M 4.730469 9.253906 " clip-rule="nonzero"/></clipPath><clipPath id="17210b1d1e"><path d="M 53.386719 9.253906 C 26.515625 9.253906 4.730469 31.039062 4.730469 57.910156 C 4.730469 84.785156 26.515625 106.570312 53.386719 106.570312 C 80.261719 106.570312 102.046875 84.785156 102.046875 57.910156 C 102.046875 31.039062 80.261719 9.253906 53.386719 9.253906 Z M 53.386719 9.253906 " clip-rule="nonzero"/></clipPath><clipPath id="3d3b4358c0"><path d="M 0.730469 0.253906 L 98.046875 0.253906 L 98.046875 97.570312 L 0.730469 97.570312 Z M 0.730469 0.253906 " clip-rule="nonzero"/></clipPath><clipPath id="13fdbe461e"><path d="M 49.386719 0.253906 C 22.515625 0.253906 0.730469 22.039062 0.730469 48.910156 C 0.730469 75.785156 22.515625 97.570312 49.386719 97.570312 C 76.261719 97.570312 98.046875 75.785156 98.046875 48.910156 C 98.046875 22.039062 76.261719 0.253906 49.386719 0.253906 Z M 49.386719 0.253906 " clip-rule="nonzero"/></clipPath><clipPath id="58e1a81ce5"><rect x="0" width="99" y="0" height="98"/></clipPath><clipPath id="ffd2d80472"><path d="M 11 0.0625 L 63 0.0625 L 63 88 L 11 88 Z M 11 0.0625 " clip-rule="nonzero"/></clipPath><clipPath id="aa32ffeaa4"><path d="M 2 22 L 51.632812 22 L 51.632812 69 L 2 69 Z M 2 22 " clip-rule="nonzero"/></clipPath><clipPath id="0059636058"><rect x="0" width="52" y="0" height="88"/></clipPath><clipPath id="b275af42dc"><path d="M 43 28 L 94 28 L 94 115.777344 L 43 115.777344 Z M 43 28 " clip-rule="nonzero"/></clipPath><clipPath id="4a9ede4d8c"><rect x="0" width="51" y="0" height="88"/></clipPath><clipPath id="0e61121812"><path d="M 0.621094 22 L 19 22 L 19 51 L 0.621094 51 Z M 0.621094 22 " clip-rule="nonzero"/></clipPath><clipPath id="d20dd798c5"><path d="M 65 29 L 87.828125 29 L 87.828125 64 L 65 64 Z M 65 29 " clip-rule="nonzero"/></clipPath><clipPath id="6473a825d2"><rect x="0" width="88" y="0" height="69"/></clipPath><clipPath id="3ef24f83c9"><rect x="0" width="102" y="0" height="69"/></clipPath><clipPath id="c42e605d23"><rect x="0" width="61" y="0" height="102"/></clipPath><clipPath id="9fb9da66e8"><path d="M 264 0.0625 L 322 0.0625 L 322 101 L 264 101 Z M 264 0.0625 " clip-rule="nonzero"/></clipPath><clipPath id="4fecee7799"><rect x="0" width="58" y="0" height="101"/></clipPath><clipPath id="5f1c3916ea"><rect x="0" width="399" y="0" height="116"/></clipPath></defs><g transform="matrix(1, 0, 0, 1, 9, 10)"><g clip-path="url(#5f1c3916ea)"><g fill="#000000" fill-opacity="1"><g transform="translate(147.550998, 105.138199)"><g><path d="M 11.765625 -11.5 L 11.765625 0 L 9.625 0 L 9.625 -4.9375 L 3.6875 -4.9375 L 3.6875 0 L 1.546875 0 L 1.546875 -11.5 L 3.6875 -11.5 L 3.6875 -6.75 L 9.625 -6.75 L 9.625 -11.5 Z M 11.765625 -11.5 "/></g></g></g><g fill="#000000" fill-opacity="1"><g transform="translate(168.497772, 105.138199)"><g><path d="M 10.171875 -1.796875 L 10.171875 0 L 1.546875 0 L 1.546875 -11.5 L 9.9375 -11.5 L 9.9375 -9.71875 L 3.6875 -9.71875 L 3.6875 -6.71875 L 9.234375 -6.71875 L 9.234375 -4.96875 L 3.6875 -4.96875 L 3.6875 -1.796875 Z M 10.171875 -1.796875 "/></g></g></g><g fill="#000000" fill-opacity="1"><g transform="translate(187.143247, 105.138199)"><g><path d="M 9 -2.65625 L 3.25 -2.65625 L 2.125 0 L -0.078125 0 L 5.09375 -11.5 L 7.203125 -11.5 L 12.390625 0 L 10.15625 0 Z M 8.296875 -4.34375 L 6.125 -9.375 L 3.984375 -4.34375 Z M 8.296875 -4.34375 "/></g></g></g><g fill="#000000" fill-opacity="1"><g transform="translate(207.087308, 105.138199)"><g><path d="M 3.875 -9.703125 L 0.0625 -9.703125 L 0.0625 -11.5 L 9.828125 -11.5 L 9.828125 -9.703125 L 6.015625 -9.703125 L 6.015625 0 L 3.875 0 Z M 3.875 -9.703125 "/></g></g></g><g fill="#000000" fill-opacity="1"><g transform="translate(224.615005, 105.138199)"><g><path d="M 1.546875 -11.5 L 3.6875 -11.5 L 3.6875 0 L 1.546875 0 Z M 1.546875 -11.5 "/></g></g></g><g fill="#000000" fill-opacity="1"><g transform="translate(237.490771, 105.138199)"><g><path d="M 11.765625 -11.5 L 11.765625 0 L 10.015625 0 L 3.671875 -7.796875 L 3.671875 0 L 1.546875 0 L 1.546875 -11.5 L 3.296875 -11.5 L 9.65625 -3.71875 L 9.65625 -11.5 Z M 11.765625 -11.5 "/></g></g></g><g fill="#000000" fill-opacity="1"><g transform="translate(258.437545, 105.138199)"><g><path d="M 9.40625 -5.890625 L 11.421875 -5.890625 L 11.421875 -1.296875 C 10.828125 -0.828125 10.132812 -0.460938 9.34375 -0.203125 C 8.5625 0.046875 7.753906 0.171875 6.921875 0.171875 C 5.742188 0.171875 4.679688 -0.0820312 3.734375 -0.59375 C 2.796875 -1.101562 2.054688 -1.804688 1.515625 -2.703125 C 0.984375 -3.609375 0.71875 -4.625 0.71875 -5.75 C 0.71875 -6.882812 0.984375 -7.898438 1.515625 -8.796875 C 2.054688 -9.691406 2.800781 -10.394531 3.75 -10.90625 C 4.695312 -11.414062 5.765625 -11.671875 6.953125 -11.671875 C 7.921875 -11.671875 8.796875 -11.507812 9.578125 -11.1875 C 10.367188 -10.875 11.035156 -10.410156 11.578125 -9.796875 L 10.21875 -8.484375 C 9.34375 -9.359375 8.285156 -9.796875 7.046875 -9.796875 C 6.234375 -9.796875 5.507812 -9.625 4.875 -9.28125 C 4.25 -8.945312 3.757812 -8.472656 3.40625 -7.859375 C 3.050781 -7.242188 2.875 -6.539062 2.875 -5.75 C 2.875 -4.988281 3.050781 -4.300781 3.40625 -3.6875 C 3.757812 -3.070312 4.25 -2.585938 4.875 -2.234375 C 5.507812 -1.878906 6.226562 -1.703125 7.03125 -1.703125 C 7.9375 -1.703125 8.726562 -1.898438 9.40625 -2.296875 Z M 9.40625 -5.890625 "/></g></g></g><g fill="#000000" fill-opacity="1"><g transform="translate(278.759682, 105.138199)"><g/></g></g><g fill="#000000" fill-opacity="1"><g transform="translate(290.928617, 105.138199)"><g><path d="M 10.171875 0.1875 L 8.734375 -1.21875 C 7.660156 -0.289062 6.367188 0.171875 4.859375 0.171875 C 4.066406 0.171875 3.351562 0.0390625 2.71875 -0.21875 C 2.082031 -0.488281 1.582031 -0.851562 1.21875 -1.3125 C 0.851562 -1.78125 0.671875 -2.3125 0.671875 -2.90625 C 0.671875 -3.625 0.878906 -4.253906 1.296875 -4.796875 C 1.710938 -5.335938 2.394531 -5.867188 3.34375 -6.390625 C 2.875 -6.847656 2.539062 -7.273438 2.34375 -7.671875 C 2.15625 -8.078125 2.0625 -8.492188 2.0625 -8.921875 C 2.0625 -9.734375 2.363281 -10.390625 2.96875 -10.890625 C 3.570312 -11.390625 4.378906 -11.640625 5.390625 -11.640625 C 6.316406 -11.640625 7.0625 -11.410156 7.625 -10.953125 C 8.1875 -10.503906 8.46875 -9.890625 8.46875 -9.109375 C 8.46875 -8.515625 8.28125 -7.988281 7.90625 -7.53125 C 7.539062 -7.070312 6.941406 -6.601562 6.109375 -6.125 L 8.59375 -3.765625 C 8.863281 -4.296875 9.078125 -4.941406 9.234375 -5.703125 L 10.890625 -5.15625 C 10.671875 -4.132812 10.328125 -3.257812 9.859375 -2.53125 L 11.3125 -1.15625 Z M 5.390625 -10.171875 C 4.941406 -10.171875 4.582031 -10.054688 4.3125 -9.828125 C 4.050781 -9.609375 3.921875 -9.316406 3.921875 -8.953125 C 3.921875 -8.691406 3.992188 -8.441406 4.140625 -8.203125 C 4.285156 -7.972656 4.5625 -7.65625 4.96875 -7.25 C 5.625 -7.613281 6.078125 -7.925781 6.328125 -8.1875 C 6.585938 -8.457031 6.71875 -8.753906 6.71875 -9.078125 C 6.71875 -9.410156 6.597656 -9.675781 6.359375 -9.875 C 6.128906 -10.070312 5.804688 -10.171875 5.390625 -10.171875 Z M 5.015625 -1.515625 C 5.960938 -1.515625 6.796875 -1.804688 7.515625 -2.390625 L 4.46875 -5.296875 C 3.8125 -4.929688 3.347656 -4.582031 3.078125 -4.25 C 2.804688 -3.914062 2.671875 -3.539062 2.671875 -3.125 C 2.671875 -2.644531 2.882812 -2.253906 3.3125 -1.953125 C 3.75 -1.660156 4.316406 -1.515625 5.015625 -1.515625 Z M 5.015625 -1.515625 "/></g></g></g><g fill="#000000" fill-opacity="1"><g transform="translate(310.165848, 105.138199)"><g/></g></g><g fill="#000000" fill-opacity="1"><g transform="translate(322.334783, 105.138199)"><g><path d="M 9 -2.65625 L 3.25 -2.65625 L 2.125 0 L -0.078125 0 L 5.09375 -11.5 L 7.203125 -11.5 L 12.390625 0 L 10.15625 0 Z M 8.296875 -4.34375 L 6.125 -9.375 L 3.984375 -4.34375 Z M 8.296875 -4.34375 "/></g></g></g><g fill="#000000" fill-opacity="1"><g transform="translate(342.278844, 105.138199)"><g><path d="M 1.546875 -11.5 L 3.6875 -11.5 L 3.6875 0 L 1.546875 0 Z M 1.546875 -11.5 "/></g></g></g><g fill="#000000" fill-opacity="1"><g transform="translate(355.154621, 105.138199)"><g><path d="M 9.078125 0 L 6.71875 -3.375 C 6.625 -3.363281 6.476562 -3.359375 6.28125 -3.359375 L 3.6875 -3.359375 L 3.6875 0 L 1.546875 0 L 1.546875 -11.5 L 6.28125 -11.5 C 7.28125 -11.5 8.148438 -11.332031 8.890625 -11 C 9.628906 -10.675781 10.191406 -10.207031 10.578125 -9.59375 C 10.972656 -8.976562 11.171875 -8.25 11.171875 -7.40625 C 11.171875 -6.539062 10.957031 -5.796875 10.53125 -5.171875 C 10.113281 -4.546875 9.515625 -4.082031 8.734375 -3.78125 L 11.375 0 Z M 9.03125 -7.40625 C 9.03125 -8.144531 8.785156 -8.710938 8.296875 -9.109375 C 7.816406 -9.503906 7.113281 -9.703125 6.1875 -9.703125 L 3.6875 -9.703125 L 3.6875 -5.109375 L 6.1875 -5.109375 C 7.113281 -5.109375 7.816406 -5.304688 8.296875 -5.703125 C 8.785156 -6.109375 9.03125 -6.675781 9.03125 -7.40625 Z M 9.03125 -7.40625 "/></g></g></g><g clip-path="url(#580dd4cdf7)"><g clip-path="url(#66284d5382)"><g transform="matrix(1, 0, 0, 1, 0.000000000000001776, 5)"><g clip-path="url(#4a9aea1b22)"><g clip-path="url(#6e9c785018)"><g clip-path="url(#f42529e03b)"><path fill="#ffffff" d="M 0.535156 0.0585938 L 106.238281 0.0585938 L 106.238281 105.761719 L 0.535156 105.761719 Z M 0.535156 0.0585938 " fill-opacity="1" fill-rule="nonzero"/></g></g></g></g></g></g><g clip-path="url(#a7342c4373)"><path fill="#1f3018" d="M 53.382812 5.058594 C 24.226562 5.058594 0.535156 28.75 0.535156 57.90625 C 0.535156 87.066406 24.226562 110.753906 53.382812 110.753906 C 82.539062 110.753906 106.230469 87.066406 106.230469 57.90625 C 106.230469 28.75 82.539062 5.058594 53.382812 5.058594 Z M 53.382812 7.359375 C 81.332031 7.359375 103.933594 29.960938 103.933594 57.90625 C 103.933594 85.855469 81.332031 108.457031 53.382812 108.457031 C 25.4375 108.457031 2.832031 85.855469 2.832031 57.90625 C 2.832031 29.960938 25.4375 7.359375 53.382812 7.359375 Z M 53.382812 7.359375 " fill-opacity="1" fill-rule="nonzero"/></g><g clip-path="url(#01a5d496f7)"><g clip-path="url(#17210b1d1e)"><g transform="matrix(1, 0, 0, 1, 4, 9)"><g clip-path="url(#58e1a81ce5)"><g clip-path="url(#3d3b4358c0)"><g clip-path="url(#13fdbe461e)"><path fill="#6caedf" d="M 0.730469 0.253906 L 98.046875 0.253906 L 98.046875 97.570312 L 0.730469 97.570312 Z M 0.730469 0.253906 " fill-opacity="1" fill-rule="nonzero"/></g></g></g></g></g></g><g clip-path="url(#ffd2d80472)"><g transform="matrix(1, 0, 0, 1, 11, 0.000000000000033751)"><g clip-path="url(#0059636058)"><g clip-path="url(#aa32ffeaa4)"><g fill="#000000" fill-opacity="0.4"><g transform="translate(2.159856, 64.595368)"><g><path d="M 36.40625 -10.015625 C 35.820312 -11.078125 34.953125 -12.035156 33.796875 -12.890625 C 32.648438 -13.742188 31.351562 -14.425781 29.90625 -14.9375 C 28.46875 -15.457031 26.960938 -15.847656 25.390625 -16.109375 C 20.722656 -16.796875 16.367188 -18.304688 12.328125 -20.640625 C 11.984375 -20.828125 11.613281 -21.21875 11.21875 -21.8125 C 10.832031 -22.414062 10.640625 -22.992188 10.640625 -23.546875 C 10.640625 -25.585938 10.976562 -27.628906 11.65625 -29.671875 C 12.332031 -31.710938 13.203125 -33.3125 14.265625 -34.46875 C 15.972656 -36.382812 19.050781 -38.054688 23.5 -39.484375 C 27.945312 -40.921875 32.953125 -41.640625 38.515625 -41.640625 C 41.835938 -41.640625 44.40625 -41.382812 46.21875 -40.875 C 48.03125 -40.363281 48.9375 -39.578125 48.9375 -38.515625 C 48.9375 -36.785156 48.695312 -35.445312 48.21875 -34.5 C 47.75 -33.550781 47.242188 -32.921875 46.703125 -32.609375 C 46.160156 -32.296875 45.207031 -31.875 43.84375 -31.34375 C 42.394531 -30.832031 41.132812 -30.300781 40.0625 -29.75 C 38.988281 -29.195312 38.066406 -28.664062 37.296875 -28.15625 C 36.535156 -27.644531 36.066406 -27.390625 35.890625 -27.390625 C 35.648438 -27.390625 35.53125 -27.484375 35.53125 -27.671875 C 35.53125 -28.066406 35.941406 -28.660156 36.765625 -29.453125 C 37.585938 -30.253906 38.597656 -30.957031 39.796875 -31.5625 C 41.066406 -32.226562 41.703125 -32.65625 41.703125 -32.84375 C 41.703125 -33.132812 41 -33.28125 39.59375 -33.28125 C 35.320312 -33.28125 31.375 -32.898438 27.75 -32.140625 C 24.125 -31.378906 21.265625 -30.375 19.171875 -29.125 C 17.078125 -27.882812 16.03125 -26.613281 16.03125 -25.3125 C 16.03125 -24.507812 16.460938 -23.941406 17.328125 -23.609375 C 18.203125 -23.273438 20.113281 -22.710938 23.0625 -21.921875 C 26.019531 -21.140625 28.664062 -20.238281 31 -19.21875 C 34.34375 -17.789062 36.820312 -16.300781 38.4375 -14.75 C 40.0625 -13.207031 40.875 -11.476562 40.875 -9.5625 C 40.875 -8.238281 40.554688 -6.914062 39.921875 -5.59375 C 39.285156 -4.269531 38.351562 -3.050781 37.125 -1.9375 C 35.90625 -0.832031 34.5 0.078125 32.90625 0.796875 C 31.539062 1.367188 29.820312 1.910156 27.75 2.421875 C 25.6875 2.929688 23.445312 3.328125 21.03125 3.609375 C 18.625 3.898438 16.320312 4.046875 14.125 4.046875 C 10.09375 4.046875 6.84375 3.664062 4.375 2.90625 C 1.914062 2.144531 0.6875 0.992188 0.6875 -0.546875 C 0.6875 -1.242188 1.101562 -2.328125 1.9375 -3.796875 C 2.769531 -5.265625 3.753906 -6.25 4.890625 -6.75 C 5.878906 -7.144531 6.832031 -7.367188 7.75 -7.421875 C 8.675781 -7.484375 9.140625 -7.375 9.140625 -7.09375 C 9.140625 -7.03125 9.101562 -6.960938 9.03125 -6.890625 C 8.96875 -6.816406 8.890625 -6.757812 8.796875 -6.71875 C 8.703125 -6.675781 8.609375 -6.628906 8.515625 -6.578125 C 8.054688 -6.390625 7.679688 -6.242188 7.390625 -6.140625 C 7.109375 -6.046875 6.878906 -5.945312 6.703125 -5.84375 C 6.523438 -5.738281 6.4375 -5.59375 6.4375 -5.40625 C 6.4375 -4.914062 8.828125 -4.671875 13.609375 -4.671875 C 17.765625 -4.671875 21.171875 -4.820312 23.828125 -5.125 C 26.484375 -5.425781 28.828125 -5.96875 30.859375 -6.75 C 32.890625 -7.539062 34.738281 -8.628906 36.40625 -10.015625 Z M 36.40625 -10.015625 "/></g></g></g></g><g fill="#000000" fill-opacity="1"><g transform="translate(0.843182, 63.278694)"><g><path d="M 36.40625 -10.015625 C 35.820312 -11.078125 34.953125 -12.035156 33.796875 -12.890625 C 32.648438 -13.742188 31.351562 -14.425781 29.90625 -14.9375 C 28.46875 -15.457031 26.960938 -15.847656 25.390625 -16.109375 C 20.722656 -16.796875 16.367188 -18.304688 12.328125 -20.640625 C 11.984375 -20.828125 11.613281 -21.21875 11.21875 -21.8125 C 10.832031 -22.414062 10.640625 -22.992188 10.640625 -23.546875 C 10.640625 -25.585938 10.976562 -27.628906 11.65625 -29.671875 C 12.332031 -31.710938 13.203125 -33.3125 14.265625 -34.46875 C 15.972656 -36.382812 19.050781 -38.054688 23.5 -39.484375 C 27.945312 -40.921875 32.953125 -41.640625 38.515625 -41.640625 C 41.835938 -41.640625 44.40625 -41.382812 46.21875 -40.875 C 48.03125 -40.363281 48.9375 -39.578125 48.9375 -38.515625 C 48.9375 -36.785156 48.695312 -35.445312 48.21875 -34.5 C 47.75 -33.550781 47.242188 -32.921875 46.703125 -32.609375 C 46.160156 -32.296875 45.207031 -31.875 43.84375 -31.34375 C 42.394531 -30.832031 41.132812 -30.300781 40.0625 -29.75 C 38.988281 -29.195312 38.066406 -28.664062 37.296875 -28.15625 C 36.535156 -27.644531 36.066406 -27.390625 35.890625 -27.390625 C 35.648438 -27.390625 35.53125 -27.484375 35.53125 -27.671875 C 35.53125 -28.066406 35.941406 -28.660156 36.765625 -29.453125 C 37.585938 -30.253906 38.597656 -30.957031 39.796875 -31.5625 C 41.066406 -32.226562 41.703125 -32.65625 41.703125 -32.84375 C 41.703125 -33.132812 41 -33.28125 39.59375 -33.28125 C 35.320312 -33.28125 31.375 -32.898438 27.75 -32.140625 C 24.125 -31.378906 21.265625 -30.375 19.171875 -29.125 C 17.078125 -27.882812 16.03125 -26.613281 16.03125 -25.3125 C 16.03125 -24.507812 16.460938 -23.941406 17.328125 -23.609375 C 18.203125 -23.273438 20.113281 -22.710938 23.0625 -21.921875 C 26.019531 -21.140625 28.664062 -20.238281 31 -19.21875 C 34.34375 -17.789062 36.820312 -16.300781 38.4375 -14.75 C 40.0625 -13.207031 40.875 -11.476562 40.875 -9.5625 C 40.875 -8.238281 40.554688 -6.914062 39.921875 -5.59375 C 39.285156 -4.269531 38.351562 -3.050781 37.125 -1.9375 C 35.90625 -0.832031 34.5 0.078125 32.90625 0.796875 C 31.539062 1.367188 29.820312 1.910156 27.75 2.421875 C 25.6875 2.929688 23.445312 3.328125 21.03125 3.609375 C 18.625 3.898438 16.320312 4.046875 14.125 4.046875 C 10.09375 4.046875 6.84375 3.664062 4.375 2.90625 C 1.914062 2.144531 0.6875 0.992188 0.6875 -0.546875 C 0.6875 -1.242188 1.101562 -2.328125 1.9375 -3.796875 C 2.769531 -5.265625 3.753906 -6.25 4.890625 -6.75 C 5.878906 -7.144531 6.832031 -7.367188 7.75 -7.421875 C 8.675781 -7.484375 9.140625 -7.375 9.140625 -7.09375 C 9.140625 -7.03125 9.101562 -6.960938 9.03125 -6.890625 C 8.96875 -6.816406 8.890625 -6.757812 8.796875 -6.71875 C 8.703125 -6.675781 8.609375 -6.628906 8.515625 -6.578125 C 8.054688 -6.390625 7.679688 -6.242188 7.390625 -6.140625 C 7.109375 -6.046875 6.878906 -5.945312 6.703125 -5.84375 C 6.523438 -5.738281 6.4375 -5.59375 6.4375 -5.40625 C 6.4375 -4.914062 8.828125 -4.671875 13.609375 -4.671875 C 17.765625 -4.671875 21.171875 -4.820312 23.828125 -5.125 C 26.484375 -5.425781 28.828125 -5.96875 30.859375 -6.75 C 32.890625 -7.539062 34.738281 -8.628906 36.40625 -10.015625 Z M 36.40625 -10.015625 "/></g></g></g></g></g></g><g clip-path="url(#b275af42dc)"><g transform="matrix(1, 0, 0, 1, 43, 28)"><g clip-path="url(#4a9ede4d8c)"><g fill="#000000" fill-opacity="0.4"><g transform="translate(2.542287, 65.001834)"><g><path d="M 14.484375 -20.578125 L 25.046875 -36.328125 C 22.640625 -36.242188 20.109375 -35.898438 17.453125 -35.296875 C 14.796875 -34.691406 12.519531 -34.046875 10.625 -33.359375 C 8.738281 -32.679688 7.050781 -32.035156 5.5625 -31.421875 C 4.070312 -30.816406 3.003906 -30.390625 2.359375 -30.140625 C 2.191406 -30.140625 2.023438 -30.195312 1.859375 -30.3125 C 1.703125 -30.425781 1.625 -30.5625 1.625 -30.71875 C 1.625 -30.90625 2.160156 -32.035156 3.234375 -34.109375 C 4.304688 -36.191406 5.570312 -38.421875 7.03125 -40.796875 C 15.113281 -43.679688 22.25 -45.125 28.4375 -45.125 C 35.59375 -45.125 40.554688 -43.601562 43.328125 -40.5625 C 44.328125 -39.5 45.097656 -38.1875 45.640625 -36.625 C 46.179688 -35.070312 46.453125 -33.53125 46.453125 -32 C 46.453125 -28.539062 45.726562 -25.394531 44.28125 -22.5625 C 42.84375 -19.738281 40.78125 -17.285156 38.09375 -15.203125 C 35.414062 -13.128906 32.265625 -11.539062 28.640625 -10.4375 C 25.015625 -9.34375 21.046875 -8.796875 16.734375 -8.796875 C 15.972656 -8.796875 14.410156 -8.9375 12.046875 -9.21875 L 8.9375 -3.53125 C 9.257812 -3.050781 9.421875 -2.660156 9.421875 -2.359375 C 9.421875 -1.640625 9.257812 -1.035156 8.9375 -0.546875 C 8.476562 0.140625 7.863281 1.046875 7.09375 2.171875 C 6.332031 3.304688 5.816406 4.054688 5.546875 4.421875 C 5.285156 4.796875 4.988281 5.117188 4.65625 5.390625 C 4.320312 5.671875 3.992188 5.8125 3.671875 5.8125 C 3.003906 5.8125 2.578125 5.609375 2.390625 5.203125 C 2.203125 4.804688 2.109375 4.25 2.109375 3.53125 C 2.109375 2.519531 2.609375 0.910156 3.609375 -1.296875 C 4.617188 -3.503906 6.140625 -6.429688 8.171875 -10.078125 C 7.085938 -10.492188 6.242188 -11.035156 5.640625 -11.703125 C 5.046875 -12.378906 4.75 -13.039062 4.75 -13.6875 C 4.75 -15.113281 5.566406 -16.4375 7.203125 -17.65625 C 8.835938 -18.882812 11.265625 -19.859375 14.484375 -20.578125 Z M 18.078125 -19.640625 L 16.109375 -16.3125 C 16.984375 -16.269531 17.757812 -16.222656 18.4375 -16.171875 C 19.125 -16.128906 19.695312 -16.109375 20.15625 -16.109375 C 24.195312 -16.109375 27.703125 -16.648438 30.671875 -17.734375 C 33.640625 -18.816406 35.992188 -20.160156 37.734375 -21.765625 C 39.484375 -23.367188 40.75 -24.976562 41.53125 -26.59375 C 42.3125 -28.21875 42.703125 -29.570312 42.703125 -30.65625 C 42.703125 -32.15625 42.101562 -33.332031 40.90625 -34.1875 C 39.707031 -35.039062 37.976562 -35.625 35.71875 -35.9375 C 33.46875 -36.25 30.566406 -36.40625 27.015625 -36.40625 C 27.066406 -36.144531 27.09375 -35.832031 27.09375 -35.46875 C 27.09375 -34.269531 26.457031 -32.6875 25.1875 -30.71875 L 19.15625 -21.265625 L 23.6875 -21.78125 C 24.0625 -21.78125 24.25 -21.609375 24.25 -21.265625 C 24.25 -20.960938 23.945312 -20.753906 23.34375 -20.640625 Z M 18.078125 -19.640625 "/></g></g></g><g fill="#000000" fill-opacity="1"><g transform="translate(1.225613, 63.68516)"><g><path d="M 14.484375 -20.578125 L 25.046875 -36.328125 C 22.640625 -36.242188 20.109375 -35.898438 17.453125 -35.296875 C 14.796875 -34.691406 12.519531 -34.046875 10.625 -33.359375 C 8.738281 -32.679688 7.050781 -32.035156 5.5625 -31.421875 C 4.070312 -30.816406 3.003906 -30.390625 2.359375 -30.140625 C 2.191406 -30.140625 2.023438 -30.195312 1.859375 -30.3125 C 1.703125 -30.425781 1.625 -30.5625 1.625 -30.71875 C 1.625 -30.90625 2.160156 -32.035156 3.234375 -34.109375 C 4.304688 -36.191406 5.570312 -38.421875 7.03125 -40.796875 C 15.113281 -43.679688 22.25 -45.125 28.4375 -45.125 C 35.59375 -45.125 40.554688 -43.601562 43.328125 -40.5625 C 44.328125 -39.5 45.097656 -38.1875 45.640625 -36.625 C 46.179688 -35.070312 46.453125 -33.53125 46.453125 -32 C 46.453125 -28.539062 45.726562 -25.394531 44.28125 -22.5625 C 42.84375 -19.738281 40.78125 -17.285156 38.09375 -15.203125 C 35.414062 -13.128906 32.265625 -11.539062 28.640625 -10.4375 C 25.015625 -9.34375 21.046875 -8.796875 16.734375 -8.796875 C 15.972656 -8.796875 14.410156 -8.9375 12.046875 -9.21875 L 8.9375 -3.53125 C 9.257812 -3.050781 9.421875 -2.660156 9.421875 -2.359375 C 9.421875 -1.640625 9.257812 -1.035156 8.9375 -0.546875 C 8.476562 0.140625 7.863281 1.046875 7.09375 2.171875 C 6.332031 3.304688 5.816406 4.054688 5.546875 4.421875 C 5.285156 4.796875 4.988281 5.117188 4.65625 5.390625 C 4.320312 5.671875 3.992188 5.8125 3.671875 5.8125 C 3.003906 5.8125 2.578125 5.609375 2.390625 5.203125 C 2.203125 4.804688 2.109375 4.25 2.109375 3.53125 C 2.109375 2.519531 2.609375 0.910156 3.609375 -1.296875 C 4.617188 -3.503906 6.140625 -6.429688 8.171875 -10.078125 C 7.085938 -10.492188 6.242188 -11.035156 5.640625 -11.703125 C 5.046875 -12.378906 4.75 -13.039062 4.75 -13.6875 C 4.75 -15.113281 5.566406 -16.4375 7.203125 -17.65625 C 8.835938 -18.882812 11.265625 -19.859375 14.484375 -20.578125 Z M 18.078125 -19.640625 L 16.109375 -16.3125 C 16.984375 -16.269531 17.757812 -16.222656 18.4375 -16.171875 C 19.125 -16.128906 19.695312 -16.109375 20.15625 -16.109375 C 24.195312 -16.109375 27.703125 -16.648438 30.671875 -17.734375 C 33.640625 -18.816406 35.992188 -20.160156 37.734375 -21.765625 C 39.484375 -23.367188 40.75 -24.976562 41.53125 -26.59375 C 42.3125 -28.21875 42.703125 -29.570312 42.703125 -30.65625 C 42.703125 -32.15625 42.101562 -33.332031 40.90625 -34.1875 C 39.707031 -35.039062 37.976562 -35.625 35.71875 -35.9375 C 33.46875 -36.25 30.566406 -36.40625 27.015625 -36.40625 C 27.066406 -36.144531 27.09375 -35.832031 27.09375 -35.46875 C 27.09375 -34.269531 26.457031 -32.6875 25.1875 -30.71875 L 19.15625 -21.265625 L 23.6875 -21.78125 C 24.0625 -21.78125 24.25 -21.609375 24.25 -21.265625 C 24.25 -20.960938 23.945312 -20.753906 23.34375 -20.640625 Z M 18.078125 -19.640625 "/></g></g></g></g></g></g><g transform="matrix(1, 0, 0, 1, 160, 26)"><g clip-path="url(#6473a825d2)"><g clip-path="url(#0e61121812)"><g fill="#003767" fill-opacity="1"><g transform="translate(0.764164, 49.704405)"><g><path d="M 9.90625 -22.53125 L 11.078125 -22.53125 C 12.023438 -24.238281 12.882812 -25.445312 13.65625 -26.15625 C 14.4375 -26.863281 15.320312 -27.21875 16.3125 -27.21875 C 17.300781 -27.21875 17.796875 -26.992188 17.796875 -26.546875 C 17.796875 -26.328125 17.40625 -25.738281 16.625 -24.78125 C 15.851562 -23.832031 15.269531 -23.035156 14.875 -22.390625 C 15.488281 -22.316406 16.035156 -22.253906 16.515625 -22.203125 C 16.992188 -22.148438 17.367188 -22.101562 17.640625 -22.0625 C 16.609375 -20.15625 15.320312 -18.203125 13.78125 -16.203125 C 13.269531 -16.242188 12.84375 -16.273438 12.5 -16.296875 C 12.15625 -16.328125 11.804688 -16.351562 11.453125 -16.375 C 11.109375 -16.40625 10.6875 -16.4375 10.1875 -16.46875 C 9.207031 -14.90625 8.390625 -13.503906 7.734375 -12.265625 C 7.078125 -11.035156 6.570312 -9.90625 6.21875 -8.875 C 5.875 -7.851562 5.703125 -6.882812 5.703125 -5.96875 C 5.703125 -4.726562 6.195312 -4.109375 7.1875 -4.109375 C 7.863281 -4.109375 8.753906 -4.472656 9.859375 -5.203125 C 10.972656 -5.929688 12.457031 -7.050781 14.3125 -8.5625 L 14.3125 -6.75 C 9.445312 -1.476562 5.851562 1.15625 3.53125 1.15625 C 2.726562 1.15625 2.078125 0.835938 1.578125 0.203125 C 1.085938 -0.421875 0.84375 -1.226562 0.84375 -2.21875 C 0.84375 -2.882812 0.976562 -3.675781 1.25 -4.59375 C 1.53125 -5.507812 2.03125 -6.894531 2.75 -8.75 C 2.5 -8.53125 2.257812 -8.316406 2.03125 -8.109375 C 1.8125 -7.910156 1.609375 -7.722656 1.421875 -7.546875 C 1.234375 -7.378906 1.03125 -7.195312 0.8125 -7 C 0.59375 -6.8125 0.375 -6.617188 0.15625 -6.421875 L 0.15625 -8.296875 C 2.050781 -9.878906 4.335938 -12.660156 7.015625 -16.640625 C 6.742188 -16.648438 6.492188 -16.660156 6.265625 -16.671875 C 6.035156 -16.679688 5.753906 -16.6875 5.421875 -16.6875 C 4.359375 -16.6875 3.566406 -16.613281 3.046875 -16.46875 C 2.835938 -16.414062 2.632812 -16.359375 2.4375 -16.296875 C 2.25 -16.234375 2.117188 -16.203125 2.046875 -16.203125 C 1.972656 -16.203125 1.9375 -16.253906 1.9375 -16.359375 C 1.9375 -16.960938 2.304688 -17.859375 3.046875 -19.046875 C 3.640625 -20.046875 4.203125 -20.789062 4.734375 -21.28125 C 5.265625 -21.769531 5.910156 -22.097656 6.671875 -22.265625 C 7.441406 -22.441406 8.519531 -22.53125 9.90625 -22.53125 Z M 9.90625 -22.53125 "/></g></g></g></g><g fill="#003767" fill-opacity="1"><g transform="translate(15.032028, 49.704405)"><g><path d="M 0.15625 -6.421875 L 0.15625 -8.1875 C 1.132812 -9.332031 1.875 -10.3125 2.375 -11.125 C 1.800781 -11.320312 1.382812 -11.5625 1.125 -11.84375 C 0.863281 -12.132812 0.734375 -12.570312 0.734375 -13.15625 C 0.734375 -13.800781 1 -14.617188 1.53125 -15.609375 C 2.070312 -16.597656 2.738281 -17.523438 3.53125 -18.390625 C 4.320312 -19.253906 5.046875 -19.8125 5.703125 -20.0625 C 5.953125 -20.1875 6.191406 -20.25 6.421875 -20.25 C 6.785156 -20.25 6.96875 -20.082031 6.96875 -19.75 C 6.96875 -19.4375 6.6875 -18.8125 6.125 -17.875 C 9.832031 -18.457031 12.175781 -18.75 13.15625 -18.75 C 13.53125 -18.75 13.789062 -18.710938 13.9375 -18.640625 C 14.238281 -18.472656 14.488281 -18.09375 14.6875 -17.5 C 14.882812 -16.90625 14.984375 -16.3125 14.984375 -15.71875 C 14.984375 -15.34375 14.816406 -14.929688 14.484375 -14.484375 C 14.148438 -14.046875 13.582031 -13.40625 12.78125 -12.5625 C 11.820312 -11.53125 11.019531 -10.410156 10.375 -9.203125 C 9.726562 -8.003906 9.40625 -7.097656 9.40625 -6.484375 C 9.40625 -5.640625 9.925781 -5.21875 10.96875 -5.21875 C 12.0625 -5.21875 13.96875 -6.332031 16.6875 -8.5625 L 16.6875 -6.75 C 15.195312 -5.1875 13.960938 -3.953125 12.984375 -3.046875 C 12.015625 -2.148438 11.113281 -1.4375 10.28125 -0.90625 C 9.457031 -0.375 8.722656 -0.109375 8.078125 -0.109375 C 7.316406 -0.109375 6.679688 -0.453125 6.171875 -1.140625 C 5.671875 -1.835938 5.421875 -2.84375 5.421875 -4.15625 C 5.421875 -4.9375 5.617188 -5.820312 6.015625 -6.8125 C 6.410156 -7.800781 6.988281 -8.875 7.75 -10.03125 C 8.519531 -11.195312 9.382812 -12.351562 10.34375 -13.5 C 9.84375 -13.394531 9.273438 -13.28125 8.640625 -13.15625 C 8.015625 -13.039062 7.347656 -12.921875 6.640625 -12.796875 C 5.941406 -12.671875 5.40625 -12.570312 5.03125 -12.5 C 3.90625 -10.269531 2.28125 -8.242188 0.15625 -6.421875 Z M 0.15625 -6.421875 "/></g></g></g><g fill="#003767" fill-opacity="1"><g transform="translate(31.622127, 49.704405)"><g><path d="M 11.5 -20.578125 C 11.050781 -20.578125 10.625 -20.75 10.21875 -21.09375 C 9.8125 -21.4375 9.609375 -21.867188 9.609375 -22.390625 C 9.609375 -23.179688 9.988281 -24.0625 10.75 -25.03125 C 11.507812 -26.007812 12.289062 -26.5 13.09375 -26.5 C 13.632812 -26.5 14.082031 -26.332031 14.4375 -26 C 14.800781 -25.664062 14.984375 -25.179688 14.984375 -24.546875 C 14.984375 -23.773438 14.613281 -22.921875 13.875 -21.984375 C 13.144531 -21.046875 12.351562 -20.578125 11.5 -20.578125 Z M 13.34375 -8.5 L 13.34375 -6.53125 C 11.59375 -4.28125 9.960938 -2.582031 8.453125 -1.4375 C 6.941406 -0.300781 5.65625 0.265625 4.59375 0.265625 C 3.113281 0.265625 2.015625 -0.503906 1.296875 -2.046875 C 0.578125 -3.597656 0.21875 -5.289062 0.21875 -7.125 C 0.21875 -7.832031 0.285156 -8.503906 0.421875 -9.140625 C 0.566406 -9.773438 0.738281 -10.300781 0.9375 -10.71875 C 1.144531 -11.132812 1.515625 -11.785156 2.046875 -12.671875 C 4.609375 -16.648438 6.953125 -18.640625 9.078125 -18.640625 C 10.171875 -18.640625 10.71875 -18.210938 10.71875 -17.359375 C 10.71875 -16.785156 10.363281 -15.882812 9.65625 -14.65625 C 8.945312 -13.4375 8.3125 -12.566406 7.75 -12.046875 C 6.1875 -10.535156 5.164062 -9.484375 4.6875 -8.890625 C 4.207031 -8.296875 3.96875 -7.617188 3.96875 -6.859375 C 3.96875 -6.210938 4.207031 -5.671875 4.6875 -5.234375 C 5.175781 -4.804688 5.8125 -4.59375 6.59375 -4.59375 C 7.4375 -4.59375 8.363281 -4.898438 9.375 -5.515625 C 10.394531 -6.140625 11.71875 -7.132812 13.34375 -8.5 Z M 13.34375 -8.5 "/></g></g></g><g fill="#003767" fill-opacity="1"><g transform="translate(44.728873, 49.704405)"><g><path d="M 18.640625 -13.390625 C 15.460938 -9.867188 13.875 -7.410156 13.875 -6.015625 C 13.875 -5.242188 14.191406 -4.859375 14.828125 -4.859375 C 15.347656 -4.859375 16.023438 -5.132812 16.859375 -5.6875 C 17.703125 -6.238281 19.015625 -7.210938 20.796875 -8.609375 L 20.796875 -6.75 C 18.242188 -4.226562 16.28125 -2.410156 14.90625 -1.296875 C 13.539062 -0.179688 12.425781 0.375 11.5625 0.375 C 10.082031 0.375 9.34375 -0.59375 9.34375 -2.53125 C 9.34375 -3.113281 9.429688 -3.679688 9.609375 -4.234375 C 9.796875 -4.796875 10.046875 -5.378906 10.359375 -5.984375 C 10.671875 -6.585938 11.148438 -7.453125 11.796875 -8.578125 C 12.453125 -9.703125 13.203125 -10.972656 14.046875 -12.390625 C 13.015625 -11.867188 11.726562 -10.835938 10.1875 -9.296875 C 9.175781 -8.316406 8.316406 -7.390625 7.609375 -6.515625 C 6.910156 -5.648438 6.160156 -4.679688 5.359375 -3.609375 C 4.554688 -2.535156 3.96875 -1.8125 3.59375 -1.4375 C 3.226562 -1.070312 2.859375 -0.890625 2.484375 -0.890625 C 1.910156 -0.890625 1.378906 -1.492188 0.890625 -2.703125 C 0.398438 -3.910156 0.15625 -5.316406 0.15625 -6.921875 C 0.15625 -7.910156 0.269531 -8.679688 0.5 -9.234375 C 0.726562 -9.796875 1.175781 -10.585938 1.84375 -11.609375 C 3.082031 -13.515625 4.148438 -14.914062 5.046875 -15.8125 C 5.953125 -16.707031 6.816406 -17.15625 7.640625 -17.15625 C 8.210938 -17.15625 8.675781 -17.054688 9.03125 -16.859375 C 9.382812 -16.660156 9.5625 -16.351562 9.5625 -15.9375 C 9.5625 -15.757812 9.503906 -15.570312 9.390625 -15.375 C 9.285156 -15.175781 9.164062 -14.992188 9.03125 -14.828125 C 8.894531 -14.660156 8.613281 -14.34375 8.1875 -13.875 C 5.34375 -10.726562 3.921875 -8.6875 3.921875 -7.75 C 3.921875 -7.226562 4.085938 -6.96875 4.421875 -6.96875 C 4.640625 -6.96875 5.054688 -7.3125 5.671875 -8 C 6.296875 -8.695312 7.097656 -9.609375 8.078125 -10.734375 C 9.066406 -11.859375 10.226562 -13.03125 11.5625 -14.25 C 12.90625 -15.476562 14.4375 -16.660156 16.15625 -17.796875 C 17.101562 -18.460938 17.894531 -18.796875 18.53125 -18.796875 C 18.8125 -18.796875 19.09375 -18.398438 19.375 -17.609375 C 19.65625 -16.816406 19.796875 -16.015625 19.796875 -15.203125 C 19.796875 -14.804688 19.410156 -14.203125 18.640625 -13.390625 Z M 18.640625 -13.390625 "/></g></g></g><g clip-path="url(#d20dd798c5)"><g fill="#003767" fill-opacity="1"><g transform="translate(65.369384, 49.704405)"><g><path d="M 21.90625 -6.703125 L 12.9375 0.671875 C 10.414062 5.035156 8.117188 8.289062 6.046875 10.4375 C 3.972656 12.59375 2.4375 13.671875 1.4375 13.671875 C 0.894531 13.671875 0.625 13.335938 0.625 12.671875 C 0.625 11.367188 1.28125 9.710938 2.59375 7.703125 C 3.113281 6.910156 3.710938 6.132812 4.390625 5.375 C 5.066406 4.613281 5.707031 3.957031 6.3125 3.40625 C 6.914062 2.863281 7.710938 2.179688 8.703125 1.359375 C 9.691406 0.546875 10.363281 -0.015625 10.71875 -0.328125 C 12.519531 -3.992188 13.816406 -6.800781 14.609375 -8.75 C 12.921875 -6.945312 11.445312 -5.46875 10.1875 -4.3125 C 8.925781 -3.164062 7.765625 -2.28125 6.703125 -1.65625 C 5.648438 -1.039062 4.703125 -0.734375 3.859375 -0.734375 C 2.941406 -0.734375 2.09375 -1.460938 1.3125 -2.921875 C 0.539062 -4.390625 0.15625 -5.898438 0.15625 -7.453125 C 0.15625 -8.171875 0.320312 -8.925781 0.65625 -9.71875 C 0.988281 -10.507812 1.507812 -11.351562 2.21875 -12.25 C 2.9375 -13.15625 3.84375 -14.082031 4.9375 -15.03125 C 6.039062 -15.976562 7.328125 -16.898438 8.796875 -17.796875 C 11.585938 -19.546875 13.757812 -20.421875 15.3125 -20.421875 C 16.46875 -20.421875 17.046875 -20 17.046875 -19.15625 C 17.046875 -17.976562 15.789062 -16.832031 13.28125 -15.71875 C 11.757812 -15.050781 10.242188 -14.164062 8.734375 -13.0625 C 7.234375 -11.96875 6.019531 -10.800781 5.09375 -9.5625 C 4.164062 -8.332031 3.703125 -7.222656 3.703125 -6.234375 C 3.703125 -5.753906 3.816406 -5.367188 4.046875 -5.078125 C 4.285156 -4.785156 4.59375 -4.640625 4.96875 -4.640625 C 5.601562 -4.640625 6.320312 -4.925781 7.125 -5.5 C 7.9375 -6.082031 9.132812 -7.101562 10.71875 -8.5625 C 11.4375 -9.226562 12.394531 -10.300781 13.59375 -11.78125 C 14.789062 -13.269531 15.78125 -14.40625 16.5625 -15.1875 C 17.351562 -15.96875 18.0625 -16.359375 18.6875 -16.359375 C 19.050781 -16.359375 19.34375 -16.242188 19.5625 -16.015625 C 19.789062 -15.796875 19.90625 -15.472656 19.90625 -15.046875 C 19.90625 -14.210938 19.578125 -13.007812 18.921875 -11.4375 C 18.265625 -9.863281 17.082031 -7.285156 15.375 -3.703125 L 21.90625 -8.453125 Z M 21.90625 -6.703125 "/></g></g></g></g></g></g><g transform="matrix(1, 0, 0, 1, 297, 30)"><g clip-path="url(#3ef24f83c9)"><g fill="#003767" fill-opacity="1"><g transform="translate(1.143031, 49.302074)"><g><path d="M 0.15625 -6.421875 L 0.15625 -8.1875 C 1.132812 -9.332031 1.875 -10.3125 2.375 -11.125 C 1.800781 -11.320312 1.382812 -11.5625 1.125 -11.84375 C 0.863281 -12.132812 0.734375 -12.570312 0.734375 -13.15625 C 0.734375 -13.800781 1 -14.617188 1.53125 -15.609375 C 2.070312 -16.597656 2.738281 -17.523438 3.53125 -18.390625 C 4.320312 -19.253906 5.046875 -19.8125 5.703125 -20.0625 C 5.953125 -20.1875 6.191406 -20.25 6.421875 -20.25 C 6.785156 -20.25 6.96875 -20.082031 6.96875 -19.75 C 6.96875 -19.4375 6.6875 -18.8125 6.125 -17.875 C 9.832031 -18.457031 12.175781 -18.75 13.15625 -18.75 C 13.53125 -18.75 13.789062 -18.710938 13.9375 -18.640625 C 14.238281 -18.472656 14.488281 -18.09375 14.6875 -17.5 C 14.882812 -16.90625 14.984375 -16.3125 14.984375 -15.71875 C 14.984375 -15.34375 14.816406 -14.929688 14.484375 -14.484375 C 14.148438 -14.046875 13.582031 -13.40625 12.78125 -12.5625 C 11.820312 -11.53125 11.019531 -10.410156 10.375 -9.203125 C 9.726562 -8.003906 9.40625 -7.097656 9.40625 -6.484375 C 9.40625 -5.640625 9.925781 -5.21875 10.96875 -5.21875 C 12.0625 -5.21875 13.96875 -6.332031 16.6875 -8.5625 L 16.6875 -6.75 C 15.195312 -5.1875 13.960938 -3.953125 12.984375 -3.046875 C 12.015625 -2.148438 11.113281 -1.4375 10.28125 -0.90625 C 9.457031 -0.375 8.722656 -0.109375 8.078125 -0.109375 C 7.316406 -0.109375 6.679688 -0.453125 6.171875 -1.140625 C 5.671875 -1.835938 5.421875 -2.84375 5.421875 -4.15625 C 5.421875 -4.9375 5.617188 -5.820312 6.015625 -6.8125 C 6.410156 -7.800781 6.988281 -8.875 7.75 -10.03125 C 8.519531 -11.195312 9.382812 -12.351562 10.34375 -13.5 C 9.84375 -13.394531 9.273438 -13.28125 8.640625 -13.15625 C 8.015625 -13.039062 7.347656 -12.921875 6.640625 -12.796875 C 5.941406 -12.671875 5.40625 -12.570312 5.03125 -12.5 C 3.90625 -10.269531 2.28125 -8.242188 0.15625 -6.421875 Z M 0.15625 -6.421875 "/></g></g></g><g fill="#003767" fill-opacity="1"><g transform="translate(17.73313, 49.302074)"><g><path d="M 3.59375 -13.34375 C 6.332031 -15.820312 8.988281 -17.664062 11.5625 -18.875 C 14.132812 -20.082031 16.125 -20.6875 17.53125 -20.6875 C 17.90625 -20.6875 18.253906 -20.53125 18.578125 -20.21875 C 18.898438 -19.90625 19.15625 -19.539062 19.34375 -19.125 C 19.539062 -18.707031 19.640625 -18.398438 19.640625 -18.203125 C 19.640625 -17.878906 19.507812 -17.640625 19.25 -17.484375 C 19 -17.335938 18.5625 -17.15625 17.9375 -16.9375 C 18.0625 -16.644531 18.222656 -16.273438 18.421875 -15.828125 C 18.617188 -15.378906 18.769531 -15.015625 18.875 -14.734375 C 18.988281 -14.453125 19.046875 -14.203125 19.046875 -13.984375 C 19.046875 -13.554688 18.609375 -12.75 17.734375 -11.5625 C 16.859375 -10.382812 16.242188 -9.515625 15.890625 -8.953125 C 15.546875 -8.398438 15.375 -7.722656 15.375 -6.921875 C 15.375 -5.585938 15.984375 -4.921875 17.203125 -4.921875 C 18.460938 -4.921875 20.4375 -6.097656 23.125 -8.453125 L 23.125 -6.8125 C 18.5625 -1.75 15.300781 0.78125 13.34375 0.78125 C 12.632812 0.78125 12.128906 0.550781 11.828125 0.09375 C 11.535156 -0.363281 11.390625 -1.039062 11.390625 -1.9375 C 11.390625 -3.363281 11.90625 -5.425781 12.9375 -8.125 C 10.3125 -5.207031 8.359375 -3.128906 7.078125 -1.890625 C 5.796875 -0.660156 4.742188 -0.046875 3.921875 -0.046875 C 3.523438 -0.046875 3.03125 -0.390625 2.4375 -1.078125 C 1.84375 -1.765625 1.3125 -2.648438 0.84375 -3.734375 C 0.382812 -4.828125 0.15625 -5.957031 0.15625 -7.125 C 0.15625 -7.976562 0.234375 -8.6875 0.390625 -9.25 C 0.554688 -9.8125 0.875 -10.390625 1.34375 -10.984375 C 1.8125 -11.585938 2.5625 -12.375 3.59375 -13.34375 Z M 16.53125 -16.3125 C 11.84375 -14.164062 8.503906 -12.34375 6.515625 -10.84375 C 4.523438 -9.351562 3.53125 -7.816406 3.53125 -6.234375 C 3.53125 -5.660156 3.628906 -5.1875 3.828125 -4.8125 C 4.023438 -4.445312 4.296875 -4.265625 4.640625 -4.265625 C 4.835938 -4.265625 5.191406 -4.390625 5.703125 -4.640625 C 7.585938 -5.753906 9.3125 -7.207031 10.875 -9 C 12.445312 -10.789062 14.332031 -13.226562 16.53125 -16.3125 Z M 16.53125 -16.3125 "/></g></g></g><g fill="#003767" fill-opacity="1"><g transform="translate(40.614867, 49.302074)"><g><path d="M 11.5 -20.578125 C 11.050781 -20.578125 10.625 -20.75 10.21875 -21.09375 C 9.8125 -21.4375 9.609375 -21.867188 9.609375 -22.390625 C 9.609375 -23.179688 9.988281 -24.0625 10.75 -25.03125 C 11.507812 -26.007812 12.289062 -26.5 13.09375 -26.5 C 13.632812 -26.5 14.082031 -26.332031 14.4375 -26 C 14.800781 -25.664062 14.984375 -25.179688 14.984375 -24.546875 C 14.984375 -23.773438 14.613281 -22.921875 13.875 -21.984375 C 13.144531 -21.046875 12.351562 -20.578125 11.5 -20.578125 Z M 13.34375 -8.5 L 13.34375 -6.53125 C 11.59375 -4.28125 9.960938 -2.582031 8.453125 -1.4375 C 6.941406 -0.300781 5.65625 0.265625 4.59375 0.265625 C 3.113281 0.265625 2.015625 -0.503906 1.296875 -2.046875 C 0.578125 -3.597656 0.21875 -5.289062 0.21875 -7.125 C 0.21875 -7.832031 0.285156 -8.503906 0.421875 -9.140625 C 0.566406 -9.773438 0.738281 -10.300781 0.9375 -10.71875 C 1.144531 -11.132812 1.515625 -11.785156 2.046875 -12.671875 C 4.609375 -16.648438 6.953125 -18.640625 9.078125 -18.640625 C 10.171875 -18.640625 10.71875 -18.210938 10.71875 -17.359375 C 10.71875 -16.785156 10.363281 -15.882812 9.65625 -14.65625 C 8.945312 -13.4375 8.3125 -12.566406 7.75 -12.046875 C 6.1875 -10.535156 5.164062 -9.484375 4.6875 -8.890625 C 4.207031 -8.296875 3.96875 -7.617188 3.96875 -6.859375 C 3.96875 -6.210938 4.207031 -5.671875 4.6875 -5.234375 C 5.175781 -4.804688 5.8125 -4.59375 6.59375 -4.59375 C 7.4375 -4.59375 8.363281 -4.898438 9.375 -5.515625 C 10.394531 -6.140625 11.71875 -7.132812 13.34375 -8.5 Z M 13.34375 -8.5 "/></g></g></g><g fill="#003767" fill-opacity="1"><g transform="translate(53.721614, 49.302074)"><g><path d="M 0.15625 -6.421875 L 0.15625 -8.1875 C 1.132812 -9.332031 1.875 -10.3125 2.375 -11.125 C 1.800781 -11.320312 1.382812 -11.5625 1.125 -11.84375 C 0.863281 -12.132812 0.734375 -12.570312 0.734375 -13.15625 C 0.734375 -13.800781 1 -14.617188 1.53125 -15.609375 C 2.070312 -16.597656 2.738281 -17.523438 3.53125 -18.390625 C 4.320312 -19.253906 5.046875 -19.8125 5.703125 -20.0625 C 5.953125 -20.1875 6.191406 -20.25 6.421875 -20.25 C 6.785156 -20.25 6.96875 -20.082031 6.96875 -19.75 C 6.96875 -19.4375 6.6875 -18.8125 6.125 -17.875 C 9.832031 -18.457031 12.175781 -18.75 13.15625 -18.75 C 13.53125 -18.75 13.789062 -18.710938 13.9375 -18.640625 C 14.238281 -18.472656 14.488281 -18.09375 14.6875 -17.5 C 14.882812 -16.90625 14.984375 -16.3125 14.984375 -15.71875 C 14.984375 -15.34375 14.816406 -14.929688 14.484375 -14.484375 C 14.148438 -14.046875 13.582031 -13.40625 12.78125 -12.5625 C 11.820312 -11.53125 11.019531 -10.410156 10.375 -9.203125 C 9.726562 -8.003906 9.40625 -7.097656 9.40625 -6.484375 C 9.40625 -5.640625 9.925781 -5.21875 10.96875 -5.21875 C 12.0625 -5.21875 13.96875 -6.332031 16.6875 -8.5625 L 16.6875 -6.75 C 15.195312 -5.1875 13.960938 -3.953125 12.984375 -3.046875 C 12.015625 -2.148438 11.113281 -1.4375 10.28125 -0.90625 C 9.457031 -0.375 8.722656 -0.109375 8.078125 -0.109375 C 7.316406 -0.109375 6.679688 -0.453125 6.171875 -1.140625 C 5.671875 -1.835938 5.421875 -2.84375 5.421875 -4.15625 C 5.421875 -4.9375 5.617188 -5.820312 6.015625 -6.8125 C 6.410156 -7.800781 6.988281 -8.875 7.75 -10.03125 C 8.519531 -11.195312 9.382812 -12.351562 10.34375 -13.5 C 9.84375 -13.394531 9.273438 -13.28125 8.640625 -13.15625 C 8.015625 -13.039062 7.347656 -12.921875 6.640625 -12.796875 C 5.941406 -12.671875 5.40625 -12.570312 5.03125 -12.5 C 3.90625 -10.269531 2.28125 -8.242188 0.15625 -6.421875 Z M 0.15625 -6.421875 "/></g></g></g><g fill="#003767" fill-opacity="1"><g transform="translate(70.311713, 49.302074)"><g><path d="M 11.5 -20.578125 C 11.050781 -20.578125 10.625 -20.75 10.21875 -21.09375 C 9.8125 -21.4375 9.609375 -21.867188 9.609375 -22.390625 C 9.609375 -23.179688 9.988281 -24.0625 10.75 -25.03125 C 11.507812 -26.007812 12.289062 -26.5 13.09375 -26.5 C 13.632812 -26.5 14.082031 -26.332031 14.4375 -26 C 14.800781 -25.664062 14.984375 -25.179688 14.984375 -24.546875 C 14.984375 -23.773438 14.613281 -22.921875 13.875 -21.984375 C 13.144531 -21.046875 12.351562 -20.578125 11.5 -20.578125 Z M 13.34375 -8.5 L 13.34375 -6.53125 C 11.59375 -4.28125 9.960938 -2.582031 8.453125 -1.4375 C 6.941406 -0.300781 5.65625 0.265625 4.59375 0.265625 C 3.113281 0.265625 2.015625 -0.503906 1.296875 -2.046875 C 0.578125 -3.597656 0.21875 -5.289062 0.21875 -7.125 C 0.21875 -7.832031 0.285156 -8.503906 0.421875 -9.140625 C 0.566406 -9.773438 0.738281 -10.300781 0.9375 -10.71875 C 1.144531 -11.132812 1.515625 -11.785156 2.046875 -12.671875 C 4.609375 -16.648438 6.953125 -18.640625 9.078125 -18.640625 C 10.171875 -18.640625 10.71875 -18.210938 10.71875 -17.359375 C 10.71875 -16.785156 10.363281 -15.882812 9.65625 -14.65625 C 8.945312 -13.4375 8.3125 -12.566406 7.75 -12.046875 C 6.1875 -10.535156 5.164062 -9.484375 4.6875 -8.890625 C 4.207031 -8.296875 3.96875 -7.617188 3.96875 -6.859375 C 3.96875 -6.210938 4.207031 -5.671875 4.6875 -5.234375 C 5.175781 -4.804688 5.8125 -4.59375 6.59375 -4.59375 C 7.4375 -4.59375 8.363281 -4.898438 9.375 -5.515625 C 10.394531 -6.140625 11.71875 -7.132812 13.34375 -8.5 Z M 13.34375 -8.5 "/></g></g></g><g fill="#003767" fill-opacity="1"><g transform="translate(83.418459, 49.302074)"><g><path d="M 4.75 -7.53125 L 4.75 -6.859375 C 4.75 -5.796875 5.007812 -4.96875 5.53125 -4.375 C 6.050781 -3.78125 6.738281 -3.484375 7.59375 -3.484375 C 8.46875 -3.484375 9.378906 -3.6875 10.328125 -4.09375 C 11.273438 -4.507812 12.21875 -5.0625 13.15625 -5.75 C 14.09375 -6.4375 15.234375 -7.351562 16.578125 -8.5 L 16.578125 -6.859375 C 14.546875 -4.410156 12.640625 -2.53125 10.859375 -1.21875 C 9.078125 0.0820312 7.265625 0.734375 5.421875 0.734375 C 3.828125 0.734375 2.5625 0.113281 1.625 -1.125 C 0.6875 -2.375 0.21875 -4.078125 0.21875 -6.234375 C 0.21875 -8.128906 0.65625 -9.84375 1.53125 -11.375 C 2.414062 -12.914062 3.859375 -14.546875 5.859375 -16.265625 C 7.222656 -17.429688 8.582031 -18.3125 9.9375 -18.90625 C 11.289062 -19.5 12.5 -19.796875 13.5625 -19.796875 C 14.40625 -19.796875 15.070312 -19.601562 15.5625 -19.21875 C 16.0625 -18.832031 16.3125 -18.25 16.3125 -17.46875 C 16.3125 -16.332031 15.890625 -15.203125 15.046875 -14.078125 C 14.203125 -12.953125 12.910156 -11.835938 11.171875 -10.734375 C 9.429688 -9.628906 7.289062 -8.5625 4.75 -7.53125 Z M 5.03125 -9.296875 C 6.644531 -9.921875 8.023438 -10.703125 9.171875 -11.640625 C 10.328125 -12.578125 11.179688 -13.472656 11.734375 -14.328125 C 12.285156 -15.179688 12.5625 -15.804688 12.5625 -16.203125 C 12.5625 -16.617188 12.367188 -16.828125 11.984375 -16.828125 C 11.660156 -16.828125 11.132812 -16.617188 10.40625 -16.203125 C 9.675781 -15.785156 8.9375 -15.242188 8.1875 -14.578125 C 7.445312 -13.910156 6.78125 -13.128906 6.1875 -12.234375 C 5.59375 -11.335938 5.207031 -10.359375 5.03125 -9.296875 Z M 5.03125 -9.296875 "/></g></g></g></g></g><g transform="matrix(1, 0, 0, 1, 110, 3)"><g clip-path="url(#c42e605d23)"><g fill="#003767" fill-opacity="1"><g transform="translate(1.669531, 72.226363)"><g><path d="M 42.109375 -11.578125 C 41.441406 -12.804688 40.4375 -13.914062 39.09375 -14.90625 C 37.757812 -15.894531 36.257812 -16.6875 34.59375 -17.28125 C 32.925781 -17.882812 31.179688 -18.332031 29.359375 -18.625 C 23.960938 -19.425781 18.929688 -21.175781 14.265625 -23.875 C 13.859375 -24.09375 13.425781 -24.546875 12.96875 -25.234375 C 12.519531 -25.929688 12.296875 -26.597656 12.296875 -27.234375 C 12.296875 -29.585938 12.6875 -31.945312 13.46875 -34.3125 C 14.257812 -36.675781 15.269531 -38.523438 16.5 -39.859375 C 18.476562 -42.078125 22.035156 -44.015625 27.171875 -45.671875 C 32.316406 -47.328125 38.109375 -48.15625 44.546875 -48.15625 C 48.390625 -48.15625 51.359375 -47.859375 53.453125 -47.265625 C 55.554688 -46.679688 56.609375 -45.773438 56.609375 -44.546875 C 56.609375 -42.546875 56.332031 -41 55.78125 -39.90625 C 55.238281 -38.8125 54.648438 -38.082031 54.015625 -37.71875 C 53.390625 -37.351562 52.289062 -36.863281 50.71875 -36.25 C 49.03125 -35.664062 47.566406 -35.050781 46.328125 -34.40625 C 45.085938 -33.769531 44.023438 -33.15625 43.140625 -32.5625 C 42.265625 -31.976562 41.71875 -31.6875 41.5 -31.6875 C 41.238281 -31.6875 41.109375 -31.796875 41.109375 -32.015625 C 41.109375 -32.460938 41.582031 -33.144531 42.53125 -34.0625 C 43.476562 -34.988281 44.644531 -35.800781 46.03125 -36.5 C 47.5 -37.269531 48.234375 -37.765625 48.234375 -37.984375 C 48.234375 -38.328125 47.421875 -38.5 45.796875 -38.5 C 40.847656 -38.5 36.273438 -38.054688 32.078125 -37.171875 C 27.890625 -36.296875 24.585938 -35.132812 22.171875 -33.6875 C 19.753906 -32.25 18.546875 -30.78125 18.546875 -29.28125 C 18.546875 -28.351562 19.046875 -27.691406 20.046875 -27.296875 C 21.046875 -26.910156 23.253906 -26.265625 26.671875 -25.359375 C 30.097656 -24.453125 33.160156 -23.410156 35.859375 -22.234375 C 39.734375 -20.578125 42.601562 -18.851562 44.46875 -17.0625 C 46.332031 -15.269531 47.265625 -13.269531 47.265625 -11.0625 C 47.265625 -9.539062 46.894531 -8.007812 46.15625 -6.46875 C 45.425781 -4.9375 44.351562 -3.53125 42.9375 -2.25 C 41.53125 -0.96875 39.90625 0.0859375 38.0625 0.921875 C 36.476562 1.585938 34.492188 2.210938 32.109375 2.796875 C 29.722656 3.390625 27.132812 3.851562 24.34375 4.1875 C 21.550781 4.519531 18.882812 4.6875 16.34375 4.6875 C 11.664062 4.6875 7.90625 4.242188 5.0625 3.359375 C 2.21875 2.484375 0.796875 1.148438 0.796875 -0.640625 C 0.796875 -1.441406 1.273438 -2.691406 2.234375 -4.390625 C 3.203125 -6.085938 4.34375 -7.226562 5.65625 -7.8125 C 6.800781 -8.269531 7.90625 -8.53125 8.96875 -8.59375 C 10.039062 -8.65625 10.578125 -8.53125 10.578125 -8.21875 C 10.578125 -8.132812 10.535156 -8.050781 10.453125 -7.96875 C 10.378906 -7.894531 10.285156 -7.828125 10.171875 -7.765625 C 10.066406 -7.710938 9.960938 -7.660156 9.859375 -7.609375 C 9.316406 -7.398438 8.878906 -7.234375 8.546875 -7.109375 C 8.210938 -6.992188 7.945312 -6.875 7.75 -6.75 C 7.550781 -6.625 7.453125 -6.457031 7.453125 -6.25 C 7.453125 -5.6875 10.21875 -5.40625 15.75 -5.40625 C 20.550781 -5.40625 24.488281 -5.578125 27.5625 -5.921875 C 30.632812 -6.273438 33.34375 -6.90625 35.6875 -7.8125 C 38.039062 -8.71875 40.179688 -9.972656 42.109375 -11.578125 Z M 42.109375 -11.578125 "/></g></g></g></g></g><g clip-path="url(#9fb9da66e8)"><g transform="matrix(1, 0, 0, 1, 264, 0.000000000000033751)"><g clip-path="url(#4fecee7799)"><g fill="#003767" fill-opacity="1"><g transform="translate(0.868033, 71.810866)"><g><path d="M 16.75 -23.796875 L 28.96875 -42.03125 C 26.1875 -41.914062 23.257812 -41.507812 20.1875 -40.8125 C 17.113281 -40.125 14.484375 -39.382812 12.296875 -38.59375 C 10.109375 -37.8125 8.148438 -37.066406 6.421875 -36.359375 C 4.703125 -35.648438 3.46875 -35.148438 2.71875 -34.859375 C 2.53125 -34.859375 2.34375 -34.921875 2.15625 -35.046875 C 1.976562 -35.179688 1.890625 -35.34375 1.890625 -35.53125 C 1.890625 -35.75 2.507812 -37.054688 3.75 -39.453125 C 4.988281 -41.859375 6.445312 -44.4375 8.125 -47.1875 C 17.476562 -50.53125 25.734375 -52.203125 32.890625 -52.203125 C 41.171875 -52.203125 46.914062 -50.4375 50.125 -46.90625 C 51.269531 -45.675781 52.15625 -44.160156 52.78125 -42.359375 C 53.40625 -40.554688 53.71875 -38.773438 53.71875 -37.015625 C 53.71875 -33.015625 52.882812 -29.375 51.21875 -26.09375 C 49.550781 -22.820312 47.164062 -19.984375 44.0625 -17.578125 C 40.96875 -15.179688 37.320312 -13.347656 33.125 -12.078125 C 28.9375 -10.804688 24.34375 -10.171875 19.34375 -10.171875 C 18.46875 -10.171875 16.664062 -10.332031 13.9375 -10.65625 L 10.34375 -4.09375 C 10.707031 -3.53125 10.890625 -3.070312 10.890625 -2.71875 C 10.890625 -1.894531 10.707031 -1.203125 10.34375 -0.640625 C 9.800781 0.160156 9.085938 1.210938 8.203125 2.515625 C 7.328125 3.828125 6.734375 4.695312 6.421875 5.125 C 6.117188 5.550781 5.773438 5.925781 5.390625 6.25 C 5.003906 6.570312 4.625 6.734375 4.25 6.734375 C 3.46875 6.734375 2.96875 6.5 2.75 6.03125 C 2.539062 5.5625 2.4375 4.914062 2.4375 4.09375 C 2.4375 2.914062 3.015625 1.050781 4.171875 -1.5 C 5.335938 -4.050781 7.097656 -7.4375 9.453125 -11.65625 C 8.203125 -12.132812 7.226562 -12.757812 6.53125 -13.53125 C 5.832031 -14.3125 5.484375 -15.078125 5.484375 -15.828125 C 5.484375 -17.484375 6.429688 -19.019531 8.328125 -20.4375 C 10.222656 -21.851562 13.03125 -22.972656 16.75 -23.796875 Z M 20.90625 -22.71875 L 18.625 -18.875 C 19.644531 -18.8125 20.546875 -18.753906 21.328125 -18.703125 C 22.117188 -18.648438 22.78125 -18.625 23.3125 -18.625 C 27.988281 -18.625 32.039062 -19.25 35.46875 -20.5 C 38.90625 -21.757812 41.628906 -23.316406 43.640625 -25.171875 C 45.660156 -27.035156 47.125 -28.898438 48.03125 -30.765625 C 48.9375 -32.640625 49.390625 -34.203125 49.390625 -35.453125 C 49.390625 -37.191406 48.695312 -38.554688 47.3125 -39.546875 C 45.925781 -40.535156 43.929688 -41.207031 41.328125 -41.5625 C 38.722656 -41.925781 35.363281 -42.109375 31.25 -42.109375 C 31.300781 -41.816406 31.328125 -41.457031 31.328125 -41.03125 C 31.328125 -39.632812 30.59375 -37.800781 29.125 -35.53125 L 22.15625 -24.59375 L 27.40625 -25.203125 C 27.832031 -25.203125 28.046875 -25 28.046875 -24.59375 C 28.046875 -24.25 27.695312 -24.007812 27 -23.875 Z M 20.90625 -22.71875 "/></g></g></g></g></g></g></g></g></svg>